<?xml version="1.0" encoding="utf-8" ?>
<svg baseProfile="full" height="93.10000000000002" version="1.1" width="644.4000000000003" xmlns="http://www.w3.org/2000/svg" xmlns:ev="http://www.w3.org/2001/xml-events" xmlns:xlink="http://www.w3.org/1999/xlink"><defs /><rect fill="white" height="93.10000000000002" width="644.4000000000003" x="0" y="0" /><path d="M25,25 m12.5,18.7 l-0.3,1.5 -0.2,1.6 l-0.6,1.6 -0.5,1.9 l-0.4,1.6 0.0,1.2 l-0.2,0.8 -0.3,-0.1 m6.2,-18.3 l-0.8,-0.5 0.0,0.0 l-0.1,0.4 -0.1,0.8 m2.3,10.1 l-0.8,1.6 -0.5,1.1 l-0.6,1.6 -0.4,1.3 l-0.2,0.7 0.0,0.4 l0.0,0.0 0.1,-0.4 l0.0,-0.8 0.2,-1.2 l0.3,-1.6 0.5,-1.6 l0.9,-1.1 1.5,-1.2 l1.1,-1.1 1.2,0.1 l1.5,-0.3 1.4,0.4 l1.1,0.0 0.9,0.9 l0.6,1.2 0.1,1.6 l-0.1,1.2 -0.2,1.6 l-0.3,1.6 -0.3,1.5 l-0.3,0.8 -0.5,0.4 l0.2,0.0 0.0,0.0 l0.2,-0.7 0.2,-1.7 l0.4,-1.2 0.5,-1.9 l0.7,-2.0 0.8,-1.9 l1.0,-1.2 1.0,-0.8 l0.9,-0.8 0.8,-0.3 l0.5,0.3 0.3,0.5 l0.2,1.6 0.3,1.5 l0.2,1.6 0.0,1.7 l-0.2,2.0 -0.4,1.1 l-0.4,1.2 -0.2,0.4 l0.0,0.4 0.1,-0.3 m9.3,-12.0 m-0.4,2.5 l-0.3,1.6 -0.5,1.6 l-0.7,2.0 -0.8,1.9 l-1.0,2.4 -0.8,3.2 l-0.7,2.0 -0.4,2.0 l-0.4,1.2 0.0,0.8 l0.0,-0.4 m11.6,-18.4 l0.8,1.2 0.6,1.6 l0.1,2.0 -0.3,1.2 l-0.7,1.6 -1.0,1.3 l-1.2,0.7 -1.5,0.4 l-1.2,0.4 -1.2,-0.3 l-1.0,-0.5 -0.8,-1.2 m17.5,-15.1 m-0.3,2.5 l-0.7,1.6 -0.6,2.1 l-1.1,2.4 -1.0,2.4 l-1.1,2.0 -0.5,2.0 l-0.3,2.0 m11.4,-11.2 l0.0,0.4 -0.1,0.5 l-0.5,0.7 -0.6,1.7 l-0.7,2.0 -0.5,1.3 l-0.5,1.6 -0.3,1.6 m6.7,-14.4 m11.4,6.4 l-0.4,0.1 -0.3,-0.8 l-0.8,-0.7 -1.0,-0.7 l-1.4,-0.3 -1.4,-0.4 l-1.2,0.6 -1.3,0.4 l-1.0,1.3 -1.0,1.6 l-1.0,1.3 -0.5,1.7 l0.0,1.2 0.5,1.5 l1.0,1.2 1.6,1.1 m17.8,-10.3 l-0.4,-0.4 -0.2,0.0 l-0.4,0.1 -0.6,0.1 l-0.6,0.8 -0.8,0.9 l-1.0,0.9 -1.0,1.3 l-1.0,1.7 -0.9,1.7 l-0.6,1.2 0.1,1.2 l0.3,0.4 0.8,0.3 l1.1,0.0 1.3,-1.0 l1.5,-1.3 1.6,-0.9 l1.2,-1.4 1.1,-1.3 l0.3,-1.6 0.2,-0.5 l-0.2,0.0 -0.5,-0.4 l-0.7,0.9 -0.7,0.9 l-0.6,1.7 -0.4,1.2 l0.2,1.6 0.6,1.2 l1.0,0.3 1.4,0.3 l1.6,-0.6 1.7,-1.1 l1.7,-1.4 1.5,-1.7 m4.0,-13.4 l-0.1,0.0 -0.1,0.8 l-0.5,1.3 -0.5,1.6 l-0.5,2.2 -0.8,2.4 l-0.8,1.8 -0.4,2.4 l-0.2,2.1 -0.2,1.6 l-0.3,0.4 0.1,0.9 l0.0,-0.5 0.1,-0.7 l0.3,-1.3 0.4,-1.7 l0.9,-1.3 0.8,-1.7 l1.3,-1.0 1.1,-1.0 l1.4,-0.5 1.3,0.3 l0.7,0.2 0.4,1.2 l0.0,1.2 -0.3,1.2 l-0.5,2.1 -0.7,1.3 l-0.4,1.2 -0.4,0.5 l0.1,0.5 0.5,-0.2 m15.7,-6.8 l-0.2,-0.4 -0.1,-0.3 l-0.2,-0.4 -0.3,-0.8 l-0.6,-0.7 -0.7,-0.3 l-0.6,0.2 -0.6,0.0 l-0.8,1.0 -1.5,1.0 l-1.2,1.0 -0.9,1.8 l-0.6,1.3 0.2,1.6 l0.6,1.1 1.0,0.7 l1.4,0.6 1.2,-0.3 l1.5,-0.2 1.3,-1.0 l1.1,-1.4 0.7,-1.4 l0.4,-1.2 -0.2,-1.6 m7.1,-1.7 l-0.3,0.0 -0.2,0.5 l-0.4,0.9 -0.5,1.3 l-0.6,1.3 -0.7,1.0 l-0.4,1.2 -0.3,1.0 l-0.1,0.7 0.0,0.0 l0.0,-0.4 0.3,-0.1 l0.5,-0.8 0.5,-1.3 l0.5,-1.7 0.6,-1.7 l1.0,-1.1 0.9,-1.4 l0.9,-0.9 0.9,-0.2 l0.9,-0.2 0.6,0.2 l0.5,1.2 0.1,1.2 l0.0,1.6 -0.4,1.4 l-0.2,2.0 -0.3,1.3 l0.0,1.6 0.1,0.8 l-0.1,0.0 0.4,0.7 m13.1,-12.6 l-0.2,0.2 -0.6,-0.7 l-0.4,0.1 -0.7,-0.3 l-0.7,0.1 -0.8,0.6 l-0.6,0.5 -0.6,0.6 l-0.3,0.9 -0.1,1.3 l-0.2,0.8 -0.1,1.2 l0.6,1.2 0.5,1.0 l0.7,1.2 0.8,1.5 l0.6,1.0 -0.1,0.4 l0.0,0.9 -0.3,0.4 l-0.8,-0.2 -1.1,-0.1 l-1.4,-0.6 -1.9,-0.9 m28.3,-11.3 l-0.6,-0.2 -1.2,-0.5 l-1.2,0.4 -1.4,0.8 l-1.2,0.7 -1.2,0.7 l-0.7,1.8 -0.7,1.8 l-0.3,1.7 -0.1,1.3 l0.8,1.9 1.0,0.9 l1.2,0.6 1.2,0.1 l1.1,-0.7 1.1,-0.7 l0.8,-1.5 0.8,-1.4 l1.0,-2.0 0.7,-1.8 l0.5,-1.4 0.3,-0.9 l-0.3,-0.7 -0.6,-0.3 m8.3,-0.4 m-0.7,1.6 l-0.3,1.3 -0.8,1.0 l-0.8,1.9 -0.7,2.0 l-0.9,1.5 -0.7,1.0 l-0.4,0.5 0.1,-0.1 l0.1,-0.3 0.5,-0.7 l0.5,-1.3 m25.9,-8.5 m0.0,0.4 l-0.5,0.6 -0.5,1.4 l-4.3,9.1 -1.2,2.4 l-1.0,2.5 -0.7,2.3 l-0.5,1.4 -0.2,0.5 m12.0,-18.3 l0.5,1.5 0.4,1.5 l0.0,1.7 0.1,2.2 l-0.8,1.1 -0.5,1.4 l-1.9,1.9 -2.6,0.1 l-1.0,-1.0 m16.2,-10.4 l-0.2,0.2 0.1,0.3 l-0.5,0.7 -0.6,1.0 l-0.7,1.5 -0.8,1.6 l-0.8,2.0 -0.9,1.6 l-0.7,1.0 -0.3,1.0 l-0.1,0.1 0.5,-1.1 l0.7,-1.1 0.6,-1.8 l0.9,-1.7 m15.0,-2.2 l-0.5,-0.2 -0.4,0.1 l-0.7,0.3 -0.8,0.8 l-1.1,0.7 -0.9,1.2 l-1.1,1.3 -1.0,1.3 l-0.4,1.5 0.0,0.8 l0.1,0.4 0.5,0.2 l0.6,-0.1 0.6,-0.8 l1.0,-0.7 1.0,-1.3 l1.0,-1.3 0.9,-1.2 l0.9,-0.8 0.3,-0.9 l0.2,-0.1 0.1,0.3 l-0.4,0.2 -0.3,1.0 l-0.7,1.1 -0.5,1.6 l-0.4,1.4 -0.1,1.3 l0.5,1.1 0.9,0.5 l1.0,0.0 1.7,0.2 m10.9,-11.0 l-0.4,-0.1 -0.4,-0.4 l-0.2,0.1 -0.2,0.5 l-0.6,0.8 -0.7,1.1 l-1.2,0.9 -0.8,1.6 l-1.0,1.3 -0.6,1.6 l-0.2,0.9 0.5,1.1 l0.4,0.3 1.1,0.4 l1.5,-0.2 1.5,-0.6 m9.2,-13.9 l-0.7,1.1 -0.5,1.5 l-0.5,2.0 -0.4,1.9 l-0.7,2.1 -0.6,1.5 l-0.5,1.6 -0.2,1.3 l-0.4,0.7 0.2,0.3 l0.1,0.0 0.2,-0.5 m8.4,-6.3 l0.6,0.1 0.6,1.5 l-0.5,0.2 0.1,1.8 l-0.3,1.4 -0.3,1.5 l-0.5,0.6 -0.3,0.6 m14.6,-8.9 l-0.4,-0.4 -0.1,-0.3 l-0.2,-0.4 -0.2,-0.4 l-0.1,0.1 -0.2,0.1 l-0.5,0.2 -0.5,0.7 l-1.2,0.6 -1.0,0.9 l-0.9,1.3 -0.8,1.3 l-0.4,1.5 -0.4,1.1 l0.2,1.2 0.7,0.9 l1.0,0.9 1.3,0.3 l1.2,-0.1 1.4,-0.3 m10.7,-7.3 l-0.3,-0.4 -0.3,0.2 l-0.3,0.1 -0.3,0.2 l-0.6,0.3 -0.8,0.3 l-0.6,0.4 -0.7,0.9 l-0.8,0.7 -0.6,1.2 l-0.7,0.8 0.2,1.2 l0.0,0.1 0.6,0.5 l0.8,0.0 1.2,0.0 l1.0,-0.5 1.3,-0.7 l1.1,-0.9 0.9,-1.0 l0.6,-1.2 0.6,-0.7 l0.1,-0.5 -0.1,0.0 l-0.4,0.2 -0.2,1.5 l-0.9,0.9 -0.4,1.5 l-0.4,1.1 0.5,1.1 l0.7,0.5 1.0,0.0 l1.0,-0.5 1.2,-1.0 l1.2,-1.2 1.4,-1.0 m8.0,-15.2 l-0.1,0.0 -0.6,0.3 l-0.2,1.5 -0.6,1.3 l-0.4,1.5 -0.3,2.0 l-0.2,2.0 -0.3,2.0 l0.0,2.2 -0.5,1.6 l0.0,1.8 -0.1,1.0 l-0.1,0.9 0.3,0.7 l-0.2,-0.3 0.1,0.0 m24.9,-11.6 l-0.2,-0.3 -0.3,-0.3 l-0.4,-0.2 -0.4,-0.3 l-0.4,-0.2 -0.7,-0.5 l-0.6,-0.1 -0.7,0.0 l-0.6,0.3 -0.8,0.9 l-0.7,0.9 -0.4,1.6 l-0.6,1.7 -0.7,1.3 l-0.2,1.5 0.1,0.9 l0.7,1.0 0.4,0.2 l1.1,0.3 0.9,-0.5 l1.4,-0.8 0.8,-1.4 l1.3,-1.2 0.7,-1.8 l0.9,-1.4 0.6,-1.3 l0.4,-1.1 0.1,-0.5 l-0.5,-0.8 0.0,0.5 l-0.3,0.2 -0.4,1.7 l-0.4,1.6 -0.5,1.6 l-0.2,1.5 0.1,1.4 l0.6,0.6 0.7,0.4 l1.1,0.0 1.0,-0.6 m7.6,-9.8 l-0.3,0.2 -0.1,0.5 l-0.2,1.1 -0.5,1.3 l-0.5,1.6 -0.7,1.8 l-0.5,2.7 -1.0,2.4 l-0.9,2.9 -0.7,2.2 l-0.2,2.5 -0.5,1.2 l0.1,0.9 0.4,0.2 l0.2,-0.5 0.4,-1.3 m8.3,-21.3 l1.2,0.7 0.8,0.9 l0.5,1.2 -0.1,1.4 l-0.6,1.2 -0.9,1.6 l-0.8,1.4 -1.1,1.2 l-1.5,0.4 -1.0,0.6 l-0.6,0.4 -0.8,-0.5 m14.7,-9.1 l-0.5,-0.2 -0.2,0.1 l-0.2,0.8 -0.4,1.0 l-0.8,1.5 -0.7,1.8 l-0.5,2.3 -1.1,2.1 l-0.9,2.4 -0.7,2.4 l-0.7,2.3 -0.7,1.8 l-0.3,1.5 0.4,0.8 l-0.2,-0.4 0.2,-0.6 m9.5,-18.2 l1.0,0.8 0.7,1.0 l0.5,1.1 0.4,1.7 l-0.2,1.0 -0.3,1.6 l-0.9,1.1 -1.0,1.1 l-1.5,0.5 -1.1,0.6 l-1.3,-0.1 -0.9,-0.3 m17.8,-16.4 l0.1,0.3 -0.5,0.4 l-0.5,1.3 -1.0,1.6 l-1.0,2.1 -0.9,2.6 l-0.9,2.5 -1.2,2.2 l-0.5,2.7 -0.4,1.7 l-0.1,1.4 0.2,0.5 m7.7,-9.9 l-0.3,0.6 -0.4,1.2 l-0.5,1.4 -0.5,1.4 l-0.2,1.5 -0.5,1.2 l0.2,0.9 0.1,0.5 m7.1,-15.5 l-0.1,0.0 0.0,0.5 l-0.2,0.6 -0.2,0.7 m11.0,3.0 l-0.5,-0.1 0.1,-0.1 l-0.3,-0.2 -0.9,-0.5 l-0.7,0.0 -1.1,0.3 l-1.7,0.3 -0.8,1.1 l-1.0,1.1 -0.8,1.5 l-1.0,1.2 -0.2,1.6 l-0.1,1.5 0.5,1.6 l0.8,0.9 1.4,1.0 m17.4,-9.9 l-0.3,-0.2 -0.5,-0.1 l-0.2,0.1 -0.9,0.2 l-0.4,0.7 -1.1,0.3 l-0.7,0.9 -0.8,1.2 l-0.8,1.0 -0.6,1.9 l-0.8,1.1 -0.1,1.1 l0.2,0.7 1.1,0.8 l0.8,0.0 1.2,-0.4 l1.2,-0.9 1.5,-1.1 l1.3,-0.9 0.7,-1.6 l0.9,-1.1 0.2,-1.0 l0.0,-0.6 0.0,-0.1 l-0.2,0.3 -0.4,0.8 l-0.7,1.0 -0.4,1.7 l-0.4,1.4 0.2,1.3 l0.2,0.7 0.9,0.5 m9.8,-15.0 l-0.7,1.6 -0.6,2.0 l-0.6,2.0 -0.9,2.2 l-0.5,1.8 -0.3,2.2 l-0.3,1.8 -0.3,1.1 l-0.2,0.7 0.1,0.4 l0.0,-0.4 0.1,-0.6 l0.6,-1.4 0.6,-1.4 l0.8,-1.7 0.7,-1.6 l1.5,-1.0 0.9,-1.2 l1.4,-0.5 1.3,0.0 l0.8,0.3 0.8,0.9 l0.3,0.8 0.3,1.2 l-0.1,1.1 0.3,0.8 l0.1,1.0 0.0,0.5 m12.7,-2.3 l0.2,-0.1 0.3,-0.3 l0.2,-0.7 0.3,-0.7 l0.1,-0.6 -0.2,-0.4 l-0.8,-0.9 -0.8,-0.3 l-0.6,-0.1 -0.7,0.1 l-0.9,0.2 -1.1,0.8 l-1.0,1.3 -1.1,1.4 l-0.8,1.6 -0.6,1.5 l0.0,1.6 0.3,1.2 l0.9,0.7 1.2,0.8 l1.2,0.0 1.2,-0.3 l0.8,-0.7 0.6,-1.4 l0.5,-1.5 0.5,-1.4 l0.3,-1.3 0.3,-1.3 m6.1,0.9 l-0.3,1.2 -0.6,0.9 l-0.3,1.3 -0.8,1.2 l-0.3,1.2 -0.3,0.8 l0.0,0.5 0.0,0.0 l-0.1,-0.5 0.5,-0.4 l0.3,-1.2 0.6,-1.5 m5.6,-5.6 l0.6,0.6 0.5,1.2 l0.1,1.0 0.2,1.7 l-0.4,1.4 -0.5,1.5 l0.0,1.6 0.2,1.3 l0.0,0.5 0.4,0.2 l0.7,-0.1 m23.2,-11.0 l0.0,0.0 -0.5,-0.2 l-0.4,-0.2 -0.8,-0.3 l-0.6,0.0 -1.1,-0.2 l-0.5,0.5 -1.1,0.4 l-1.1,0.5 -0.8,1.2 l-1.2,1.0 -0.7,1.7 l-0.4,1.4 0.4,1.2 l0.3,0.7 1.2,0.6 l1.4,0.4 1.5,-0.2 l1.7,-0.4 1.4,-0.7 l1.2,-1.1 0.9,-1.2 l0.6,-1.6 0.5,-1.1 m11.6,-11.3 l-0.8,0.2 -0.7,0.5 l-0.6,0.6 -0.6,1.0 l-0.7,1.3 -0.5,1.5 l-0.7,1.6 -0.5,2.2 l-0.7,2.2 -0.9,1.9 l-1.1,2.5 -1.0,2.0 l-1.1,1.9 -0.7,1.8 l-0.7,1.0 -0.4,0.5 m4.1,-11.6 l0.1,-0.1 0.6,0.1 l1.1,0.0 1.5,0.3 m30.1,-8.5 l-0.3,-0.2 -0.5,-0.1 l-0.5,0.0 -0.4,0.3 l-0.5,0.5 -0.4,1.0 l-1.0,1.4 -1.0,1.6 l-0.7,1.9 -0.8,1.8 l-0.2,1.8 0.1,1.5 l0.9,0.8 1.0,0.3 l2.1,0.2 2.1,-0.3 m14.4,-11.3 l-0.2,-0.4 -0.1,-0.4 l-0.4,-0.2 -0.7,-0.5 l-0.5,0.0 -0.7,0.1 l-1.2,0.1 -0.9,0.3 l-0.7,0.7 -0.5,1.1 l-0.7,1.3 -0.6,1.5 l-0.6,1.7 -0.3,1.5 l0.2,1.5 0.5,1.2 l0.6,0.5 1.3,0.4 l1.3,-0.1 0.9,-0.9 l1.1,-1.1 1.1,-1.0 l0.8,-1.3 0.4,-1.6 l0.1,-1.2 -0.2,-1.5 l0.1,-0.7 -0.1,-0.4 m8.5,-0.2 l-0.2,0.2 -0.4,0.3 l-0.3,1.0 -0.2,1.4 l-0.5,1.7 -0.9,1.4 l-0.6,1.8 -0.3,1.4 l0.0,1.1 -0.1,0.1 l0.0,0.0 0.0,-0.6 l0.7,-0.6 0.3,-1.4 l0.4,-1.6 0.8,-2.0 l0.9,-1.5 1.3,-1.4 l1.5,-0.9 1.2,-0.6 l1.4,0.3 0.7,0.4 l0.5,1.2 0.1,1.0 l-0.1,1.9 -0.6,1.7 l-0.2,1.9 -0.4,1.6 l-0.1,1.3 0.1,1.0 l0.0,0.0 -0.4,-0.2 l0.2,-0.7 0.5,-1.1 l0.6,-1.4 0.2,-1.8 l1.0,-1.5 1.0,-1.7 l1.2,-1.2 1.3,-0.8 l0.6,-0.7 0.8,-0.1 l0.6,0.5 0.2,0.9 l0.0,1.1 0.1,1.7 l-0.5,1.7 -0.2,1.9 l-0.5,1.6 -0.3,1.5 l0.0,1.1 0.3,0.3 m8.5,-11.1 l-0.4,1.6 -0.7,1.9 l-0.9,2.1 -0.9,2.2 l-1.0,2.6 -0.6,2.9 l-1.1,2.2 -0.5,2.3 l-0.4,1.6 0.0,1.1 l-0.2,0.2 0.4,-0.3 m10.2,-22.3 l0.2,0.3 0.7,1.1 l0.5,1.3 0.4,1.3 l0.2,1.5 0.4,2.0 l-0.5,1.1 -0.5,1.6 l-0.9,1.0 -1.1,0.6 l-1.3,0.1 -1.2,0.1 l-1.3,-0.3 -1.2,-0.5 l-0.8,-0.8 0.3,-0.5 m22.8,-6.8 l-0.2,-0.4 -0.6,-0.5 l0.1,-0.1 -0.9,-0.8 l-0.5,-0.1 -1.1,-0.6 l-0.5,0.2 -1.2,0.0 l-1.2,0.2 -1.2,0.1 l-0.8,0.7 -0.7,1.4 l-0.5,1.1 -0.4,1.1 l0.2,1.5 0.2,1.1 l0.7,1.0 0.8,0.3 l1.4,0.2 1.7,0.0 l1.7,-0.7 1.4,-1.0 l1.6,-1.2 0.9,-1.4 l0.5,-1.8 0.2,-1.4 l-0.1,-1.1 -0.5,-0.6 m6.3,1.3 l-0.1,0.1 -0.1,0.1 l0.0,0.6 -0.2,0.9 l-0.7,1.4 -0.7,1.2 l-0.7,1.4 -0.3,1.7 l0.0,1.0 0.9,0.9 l0.8,0.3 1.2,0.0 l1.4,-0.5 1.7,-0.7 l1.4,-1.0 1.3,-1.4 l1.4,-1.6 1.1,-1.8 l0.8,-1.5 0.3,-1.0 l0.3,-0.4 -0.3,-0.3 l0.0,0.2 -2.1,1.6 l-1.1,1.3 -0.2,2.0 l-0.3,1.6 -0.1,1.3 l0.6,1.1 1.8,1.1 l1.7,-0.2 1.3,-0.8 l1.6,-0.7 0.9,-1.6 l1.3,-1.4 1.6,-1.3 l0.5,-1.8 0.6,-1.3 l0.2,-0.9 -0.1,-0.5 l-0.3,-0.2 0.0,0.6 l-0.4,1.0 -0.7,1.4 l-0.3,1.6 -0.3,1.8 l-0.4,1.6 -0.2,1.3 l-0.1,0.9 0.3,0.8 l0.0,0.0 0.1,-0.1 l0.1,-0.8 0.4,-1.0 l0.6,-1.3 0.4,-1.7 l0.6,-2.0 1.2,-1.4 l1.2,-1.3 1.4,-0.9 l1.0,-0.7 0.9,0.1 l0.8,0.4 1.0,1.2 l0.1,1.2 0.1,1.7 l-0.4,1.7 -0.5,1.8 l-0.3,1.6 -0.8,1.0 l0.3,0.8 0.2,0.4 l0.5,0.0 0.6,-0.6 m14.2,-8.1 l-0.1,-0.6 -0.4,-0.2 l-1.0,-0.6 0.0,0.0 l-0.9,-0.2 -0.1,0.1 l-0.7,0.3 -0.8,0.4 l-0.5,1.2 -1.3,0.8 l-1.1,1.4 -0.9,1.6 l-0.3,1.6 0.2,1.1 l0.7,1.0 1.2,0.3 l1.3,-0.1 1.8,-0.4 l2.0,-1.0 2.0,-1.2 l1.6,-1.9 1.4,-1.8 l1.0,-1.8 0.8,-2.2 l0.2,-2.2 0.4,-1.7 l0.2,-1.4 0.2,-1.0 l-0.2,-0.5 0.0,0.0 l0.1,0.6 -0.2,0.9 l-0.8,1.7 -0.6,1.8 l-0.6,2.0 -0.4,2.4 l-0.2,2.2 -0.3,2.3 l0.3,2.1 0.0,1.8 l0.8,1.6 0.0,0.6 l0.2,0.3 0.0,0.0 " fill="none" stroke="black" stroke-width="1" /></svg>