<?xml version="1.0" encoding="utf-8" ?>
<svg baseProfile="full" height="91.56998052616837" version="1.1" width="262.3919644560956" xmlns="http://www.w3.org/2000/svg" xmlns:ev="http://www.w3.org/2001/xml-events" xmlns:xlink="http://www.w3.org/1999/xlink"><defs /><rect fill="white" height="91.56998052616837" width="262.3919644560956" x="0" y="0" /><path d="M 28.81778697669506,66.56998052616837 " fill="rgb(85,186,159)" stroke="rgb(85,186,159)" stroke-width="2" /><path d="M 25.231293961405754,52.10731496830704 " fill="rgb(233,59,145)" stroke="rgb(233,59,145)" stroke-width="2" /><path d="M +25.231293961405754,52.10731496830704 L 25.0,51.41463460942032 " fill="rgb(233,59,145)" stroke="rgb(233,59,145)" stroke-width="2" /><path d="M +25.0,51.41463460942032 L 25.910610377788544,50.90460135956528 " fill="rgb(233,59,145)" stroke="rgb(233,59,145)" stroke-width="2" /><path d="M +25.910610377788544,50.90460135956528 L 26.96075540781021,50.196378970344085 " fill="rgb(233,59,145)" stroke="rgb(233,59,145)" stroke-width="2" /><path d="M +26.96075540781021,50.196378970344085 L 28.501947104930878,49.443489456374664 " fill="rgb(233,59,145)" stroke="rgb(233,59,145)" stroke-width="2" /><path d="M 43.7335507273674,30.11170043965103 " fill="rgb(42,234,169)" stroke="rgb(42,234,169)" stroke-width="2" /><path d="M +43.7335507273674,30.11170043965103 L 43.47901397943497,29.905626306135673 " fill="rgb(42,234,169)" stroke="rgb(42,234,169)" stroke-width="2" /><path d="M +43.47901397943497,29.905626306135673 L 43.47005790565163,29.718283572990913 " fill="rgb(42,234,169)" stroke="rgb(42,234,169)" stroke-width="2" /><path d="M +43.47005790565163,29.718283572990913 L 43.74157533142716,29.862930560309906 " fill="rgb(42,234,169)" stroke="rgb(42,234,169)" stroke-width="2" /><path d="M +43.74157533142716,29.862930560309906 L 43.558514536358416,29.93407499958994 " fill="rgb(42,234,169)" stroke="rgb(42,234,169)" stroke-width="2" /><path d="M +43.558514536358416,29.93407499958994 L 43.97837457153946,30.05520959367277 " fill="rgb(42,234,169)" stroke="rgb(42,234,169)" stroke-width="2" /><path d="M +43.97837457153946,30.05520959367277 L 43.45501282904297,30.65397168864729 " fill="rgb(42,234,169)" stroke="rgb(42,234,169)" stroke-width="2" /><path d="M +43.45501282904297,30.65397168864729 L 43.89566221926361,32.13377084006788 " fill="rgb(42,234,169)" stroke="rgb(42,234,169)" stroke-width="2" /><path d="M +43.89566221926361,32.13377084006788 L 43.758395032025874,33.57596387137892 " fill="rgb(42,234,169)" stroke="rgb(42,234,169)" stroke-width="2" /><path d="M +43.758395032025874,33.57596387137892 L 44.18345968518406,34.89678026904585 " fill="rgb(42,234,169)" stroke="rgb(42,234,169)" stroke-width="2" /><path d="M +44.18345968518406,34.89678026904585 L 44.06772088352591,36.21292282809736 " fill="rgb(42,234,169)" stroke="rgb(42,234,169)" stroke-width="2" /><path d="M +44.06772088352591,36.21292282809736 L 44.4419651562348,37.55983700026991 " fill="rgb(42,234,169)" stroke="rgb(42,234,169)" stroke-width="2" /><path d="M +44.4419651562348,37.55983700026991 L 44.637955957092345,38.63241829146864 " fill="rgb(42,234,169)" stroke="rgb(42,234,169)" stroke-width="2" /><path d="M +44.637955957092345,38.63241829146864 L 44.74334591720253,39.91686548461439 " fill="rgb(42,234,169)" stroke="rgb(42,234,169)" stroke-width="2" /><path d="M +44.74334591720253,39.91686548461439 L 45.17676454875618,41.33825768699171 " fill="rgb(42,234,169)" stroke="rgb(42,234,169)" stroke-width="2" /><path d="M +45.17676454875618,41.33825768699171 L 45.37978977058083,42.14960189332487 " fill="rgb(42,234,169)" stroke="rgb(42,234,169)" stroke-width="2" /><path d="M +45.37978977058083,42.14960189332487 L 45.40610510017723,42.27377251704456 " fill="rgb(42,234,169)" stroke="rgb(42,234,169)" stroke-width="2" /><path d="M 55.42218691017479,33.37112168391468 " fill="rgb(82,16,163)" stroke="rgb(82,16,163)" stroke-width="2" /><path d="M +55.42218691017479,33.37112168391468 L 55.246253355406225,33.229738244612236 " fill="rgb(82,16,163)" stroke="rgb(82,16,163)" stroke-width="2" /><path d="M +55.246253355406225,33.229738244612236 L 55.306321560405195,33.243416869838256 " fill="rgb(82,16,163)" stroke="rgb(82,16,163)" stroke-width="2" /><path d="M +55.306321560405195,33.243416869838256 L 55.46501900162548,33.06606833060505 " fill="rgb(82,16,163)" stroke="rgb(82,16,163)" stroke-width="2" /><path d="M +55.46501900162548,33.06606833060505 L 55.428632012568414,32.84529654105427 " fill="rgb(82,16,163)" stroke="rgb(82,16,163)" stroke-width="2" /><path d="M +55.428632012568414,32.84529654105427 L 55.66073546465486,33.12236613949062 " fill="rgb(82,16,163)" stroke="rgb(82,16,163)" stroke-width="2" /><path d="M +55.66073546465486,33.12236613949062 L 55.67435981333256,33.12200451269746 " fill="rgb(82,16,163)" stroke="rgb(82,16,163)" stroke-width="2" /><path d="M +55.67435981333256,33.12200451269746 L 55.81066960096359,33.15351117774844 " fill="rgb(82,16,163)" stroke="rgb(82,16,163)" stroke-width="2" /><path d="M +55.81066960096359,33.15351117774844 L 56.338067293167114,33.28545321151614 " fill="rgb(82,16,163)" stroke="rgb(82,16,163)" stroke-width="2" /><path d="M +56.338067293167114,33.28545321151614 L 57.27051258087158,33.188288759440184 " fill="rgb(82,16,163)" stroke="rgb(82,16,163)" stroke-width="2" /><path d="M +57.27051258087158,33.188288759440184 L 59.09558975696564,33.56041435524821 " fill="rgb(82,16,163)" stroke="rgb(82,16,163)" stroke-width="2" /><path d="M +59.09558975696564,33.56041435524821 L 60.728002429008484,34.13497916981578 " fill="rgb(82,16,163)" stroke="rgb(82,16,163)" stroke-width="2" /><path d="M +60.728002429008484,34.13497916981578 L 61.77906095981598,34.66036520525813 " fill="rgb(82,16,163)" stroke="rgb(82,16,163)" stroke-width="2" /><path d="M +61.77906095981598,34.66036520525813 L 62.86256396770477,35.576098185032606 " fill="rgb(82,16,163)" stroke="rgb(82,16,163)" stroke-width="2" /><path d="M +62.86256396770477,35.576098185032606 L 63.20856240391731,36.45324091240764 " fill="rgb(82,16,163)" stroke="rgb(82,16,163)" stroke-width="2" /><path d="M +63.20856240391731,36.45324091240764 L 63.79677578806877,37.96978370472789 " fill="rgb(82,16,163)" stroke="rgb(82,16,163)" stroke-width="2" /><path d="M +63.79677578806877,37.96978370472789 L 63.20108500123024,39.6480609588325 " fill="rgb(82,16,163)" stroke="rgb(82,16,163)" stroke-width="2" /><path d="M +63.20108500123024,39.6480609588325 L 62.4724705517292,41.34824852272868 " fill="rgb(82,16,163)" stroke="rgb(82,16,163)" stroke-width="2" /><path d="M +62.4724705517292,41.34824852272868 L 61.2279876768589,43.42770604416728 " fill="rgb(82,16,163)" stroke="rgb(82,16,163)" stroke-width="2" /><path d="M +61.2279876768589,43.42770604416728 L 59.10266700387001,45.08016316220164 " fill="rgb(82,16,163)" stroke="rgb(82,16,163)" stroke-width="2" /><path d="M +59.10266700387001,45.08016316220164 L 56.83195772767067,46.7520488910377 " fill="rgb(82,16,163)" stroke="rgb(82,16,163)" stroke-width="2" /><path d="M +56.83195772767067,46.7520488910377 L 54.101020246744156,48.592704337090254 " fill="rgb(82,16,163)" stroke="rgb(82,16,163)" stroke-width="2" /><path d="M +54.101020246744156,48.592704337090254 L 52.442873388528824,50.239541213959455 " fill="rgb(82,16,163)" stroke="rgb(82,16,163)" stroke-width="2" /><path d="M +52.442873388528824,50.239541213959455 L 50.427417904138565,51.176348607987165 " fill="rgb(82,16,163)" stroke="rgb(82,16,163)" stroke-width="2" /><path d="M +50.427417904138565,51.176348607987165 L 49.80365779995918,51.72939096018672 " fill="rgb(82,16,163)" stroke="rgb(82,16,163)" stroke-width="2" /><path d="M 68.7691538631916,34.64240441843867 " fill="rgb(6,57,19)" stroke="rgb(6,57,19)" stroke-width="2" /><path d="M +68.7691538631916,34.64240441843867 L 69.25832077860832,34.542952474206686 " fill="rgb(6,57,19)" stroke="rgb(6,57,19)" stroke-width="2" /><path d="M +69.25832077860832,34.542952474206686 L 69.17922296375036,34.49052659422159 " fill="rgb(6,57,19)" stroke="rgb(6,57,19)" stroke-width="2" /><path d="M +69.17922296375036,34.49052659422159 L 69.17562343692407,34.572681687772274 " fill="rgb(6,57,19)" stroke="rgb(6,57,19)" stroke-width="2" /><path d="M +69.17562343692407,34.572681687772274 L 69.10911304270849,34.54113157838583 " fill="rgb(6,57,19)" stroke="rgb(6,57,19)" stroke-width="2" /><path d="M +69.10911304270849,34.54113157838583 L 69.09803319675848,34.68200396746397 " fill="rgb(6,57,19)" stroke="rgb(6,57,19)" stroke-width="2" /><path d="M +69.09803319675848,34.68200396746397 L 68.92180385394022,36.032994620501995 " fill="rgb(6,57,19)" stroke="rgb(6,57,19)" stroke-width="2" /><path d="M +68.92180385394022,36.032994620501995 L 68.99755441350862,38.44730436056852 " fill="rgb(6,57,19)" stroke="rgb(6,57,19)" stroke-width="2" /><path d="M +68.99755441350862,38.44730436056852 L 68.61938863201067,40.597163788974285 " fill="rgb(6,57,19)" stroke="rgb(6,57,19)" stroke-width="2" /><path d="M +68.61938863201067,40.597163788974285 L 68.48427519900724,42.40711175650358 " fill="rgb(6,57,19)" stroke="rgb(6,57,19)" stroke-width="2" /><path d="M +68.48427519900724,42.40711175650358 L 68.23437576694414,43.96337532252073 " fill="rgb(6,57,19)" stroke="rgb(6,57,19)" stroke-width="2" /><path d="M +68.23437576694414,43.96337532252073 L 67.84033574862406,45.12115370482206 " fill="rgb(6,57,19)" stroke="rgb(6,57,19)" stroke-width="2" /><path d="M +67.84033574862406,45.12115370482206 L 68.10492362780496,46.13038443773985 " fill="rgb(6,57,19)" stroke="rgb(6,57,19)" stroke-width="2" /><path d="M +68.10492362780496,46.13038443773985 L 68.52332132263109,47.367934219539165 " fill="rgb(6,57,19)" stroke="rgb(6,57,19)" stroke-width="2" /><path d="M +68.52332132263109,47.367934219539165 L 69.10509716672823,48.30031060427427 " fill="rgb(6,57,19)" stroke="rgb(6,57,19)" stroke-width="2" /><path d="M +69.10509716672823,48.30031060427427 L 69.37514775199816,48.86123638600111 " fill="rgb(6,57,19)" stroke="rgb(6,57,19)" stroke-width="2" /><path d="M +69.37514775199816,48.86123638600111 L 70.36416583461687,49.42849313467741 " fill="rgb(6,57,19)" stroke="rgb(6,57,19)" stroke-width="2" /><path d="M +70.36416583461687,49.42849313467741 L 71.13044153852388,49.4925020635128 " fill="rgb(6,57,19)" stroke="rgb(6,57,19)" stroke-width="2" /><path d="M +71.13044153852388,49.4925020635128 L 72.04105251235887,49.13191056251526 " fill="rgb(6,57,19)" stroke="rgb(6,57,19)" stroke-width="2" /><path d="M +72.04105251235887,49.13191056251526 L 73.51141934795305,48.5460861325264 " fill="rgb(6,57,19)" stroke="rgb(6,57,19)" stroke-width="2" /><path d="M +73.51141934795305,48.5460861325264 L 75.083283952903,47.06745010614395 " fill="rgb(6,57,19)" stroke="rgb(6,57,19)" stroke-width="2" /><path d="M +75.083283952903,47.06745010614395 L 76.67186658782884,45.551232278347015 " fill="rgb(6,57,19)" stroke="rgb(6,57,19)" stroke-width="2" /><path d="M +76.67186658782884,45.551232278347015 L 78.24229996604845,43.6668558716774 " fill="rgb(6,57,19)" stroke="rgb(6,57,19)" stroke-width="2" /><path d="M +78.24229996604845,43.6668558716774 L 80.25808566017076,42.246075451374054 " fill="rgb(6,57,19)" stroke="rgb(6,57,19)" stroke-width="2" /><path d="M +80.25808566017076,42.246075451374054 L 81.35896878642961,41.06652134656906 " fill="rgb(6,57,19)" stroke="rgb(6,57,19)" stroke-width="2" /><path d="M +81.35896878642961,41.06652134656906 L 81.99899750156328,40.26183009147644 " fill="rgb(6,57,19)" stroke="rgb(6,57,19)" stroke-width="2" /><path d="M +81.99899750156328,40.26183009147644 L 82.50906794471666,40.218800749629736 " fill="rgb(6,57,19)" stroke="rgb(6,57,19)" stroke-width="2" /><path d="M +82.50906794471666,40.218800749629736 L 82.96991398138925,40.01014217361808 " fill="rgb(6,57,19)" stroke="rgb(6,57,19)" stroke-width="2" /><path d="M +82.96991398138925,40.01014217361808 L 83.22984253568575,40.292247261852026 " fill="rgb(6,57,19)" stroke="rgb(6,57,19)" stroke-width="2" /><path d="M +83.22984253568575,40.292247261852026 L 83.22950820802362,40.217268619686365 " fill="rgb(6,57,19)" stroke="rgb(6,57,19)" stroke-width="2" /><path d="M +83.22950820802362,40.217268619686365 L 82.99301862894208,40.62633964791894 " fill="rgb(6,57,19)" stroke="rgb(6,57,19)" stroke-width="2" /><path d="M +82.99301862894208,40.62633964791894 L 83.19758881806047,41.92378184571862 " fill="rgb(6,57,19)" stroke="rgb(6,57,19)" stroke-width="2" /><path d="M +83.19758881806047,41.92378184571862 L 82.88756920574815,43.18800983205438 " fill="rgb(6,57,19)" stroke="rgb(6,57,19)" stroke-width="2" /><path d="M +82.88756920574815,43.18800983205438 L 82.64965774296434,44.29683706536889 " fill="rgb(6,57,19)" stroke="rgb(6,57,19)" stroke-width="2" /><path d="M +82.64965774296434,44.29683706536889 L 83.10734640239389,45.38098523393273 " fill="rgb(6,57,19)" stroke="rgb(6,57,19)" stroke-width="2" /><path d="M +83.10734640239389,45.38098523393273 L 83.04321301160962,45.81939521804452 " fill="rgb(6,57,19)" stroke="rgb(6,57,19)" stroke-width="2" /><path d="M +83.04321301160962,45.81939521804452 L 83.73631519256742,46.0974305011332 " fill="rgb(6,57,19)" stroke="rgb(6,57,19)" stroke-width="2" /><path d="M +83.73631519256742,46.0974305011332 L 84.27136999546201,46.20241005346179 " fill="rgb(6,57,19)" stroke="rgb(6,57,19)" stroke-width="2" /><path d="M +84.27136999546201,46.20241005346179 L 84.56769409953267,45.88672710582614 " fill="rgb(6,57,19)" stroke="rgb(6,57,19)" stroke-width="2" /><path d="M +84.56769409953267,45.88672710582614 L 85.66690877257497,45.866360059008 " fill="rgb(6,57,19)" stroke="rgb(6,57,19)" stroke-width="2" /><path d="M +85.66690877257497,45.866360059008 L 86.24004665194661,45.10390924476087 " fill="rgb(6,57,19)" stroke="rgb(6,57,19)" stroke-width="2" /><path d="M 106.23561015902669,35.76130079291761 " fill="rgb(50,65,12)" stroke="rgb(50,65,12)" stroke-width="2" /><path d="M +106.23561015902669,35.76130079291761 L 106.44844559012563,35.780662504956126 " fill="rgb(50,65,12)" stroke="rgb(50,65,12)" stroke-width="2" /><path d="M +106.44844559012563,35.780662504956126 L 106.17929122029454,35.835300812497735 " fill="rgb(50,65,12)" stroke="rgb(50,65,12)" stroke-width="2" /><path d="M +106.17929122029454,35.835300812497735 L 105.86821198640973,36.06353052891791 " fill="rgb(50,65,12)" stroke="rgb(50,65,12)" stroke-width="2" /><path d="M +105.86821198640973,36.06353052891791 L 105.12651640354306,37.345222199335694 " fill="rgb(50,65,12)" stroke="rgb(50,65,12)" stroke-width="2" /><path d="M +105.12651640354306,37.345222199335694 L 103.97533267913968,39.612170899286866 " fill="rgb(50,65,12)" stroke="rgb(50,65,12)" stroke-width="2" /><path d="M +103.97533267913968,39.612170899286866 L 103.29981923280866,42.02808495797217 " fill="rgb(50,65,12)" stroke="rgb(50,65,12)" stroke-width="2" /><path d="M +103.29981923280866,42.02808495797217 L 102.39468127666623,44.07987877167761 " fill="rgb(50,65,12)" stroke="rgb(50,65,12)" stroke-width="2" /><path d="M +102.39468127666623,44.07987877167761 L 102.58276163219125,45.64890762604773 " fill="rgb(50,65,12)" stroke="rgb(50,65,12)" stroke-width="2" /><path d="M +102.58276163219125,45.64890762604773 L 102.44584559081704,46.000988060608506 " fill="rgb(50,65,12)" stroke="rgb(50,65,12)" stroke-width="2" /><path d="M +102.44584559081704,46.000988060608506 L 102.76444868920953,46.10464542545378 " fill="rgb(50,65,12)" stroke="rgb(50,65,12)" stroke-width="2" /><path d="M +102.76444868920953,46.10464542545378 L 103.6224743592611,46.02420938946307 " fill="rgb(50,65,12)" stroke="rgb(50,65,12)" stroke-width="2" /><path d="M +103.6224743592611,46.02420938946307 L 104.46949206470163,45.620201686397195 " fill="rgb(50,65,12)" stroke="rgb(50,65,12)" stroke-width="2" /><path d="M +104.46949206470163,45.620201686397195 L 105.00559286950738,44.43936405517161 " fill="rgb(50,65,12)" stroke="rgb(50,65,12)" stroke-width="2" /><path d="M +105.00559286950738,44.43936405517161 L 105.99919586061151,43.47641316987574 " fill="rgb(50,65,12)" stroke="rgb(50,65,12)" stroke-width="2" /><path d="M +105.99919586061151,43.47641316987574 L 107.01321880696923,42.19189921952784 " fill="rgb(50,65,12)" stroke="rgb(50,65,12)" stroke-width="2" /><path d="M +107.01321880696923,42.19189921952784 L 107.91295771478326,40.86305538751185 " fill="rgb(50,65,12)" stroke="rgb(50,65,12)" stroke-width="2" /><path d="M +107.91295771478326,40.86305538751185 L 109.27938644765527,40.02197472192347 " fill="rgb(50,65,12)" stroke="rgb(50,65,12)" stroke-width="2" /><path d="M +109.27938644765527,40.02197472192347 L 109.78642998813302,39.57041368819773 " fill="rgb(50,65,12)" stroke="rgb(50,65,12)" stroke-width="2" /><path d="M +109.78642998813302,39.57041368819773 L 110.02759893416078,39.806857446208596 " fill="rgb(50,65,12)" stroke="rgb(50,65,12)" stroke-width="2" /><path d="M +110.02759893416078,39.806857446208596 L 110.16778645096929,40.76091001369059 " fill="rgb(50,65,12)" stroke="rgb(50,65,12)" stroke-width="2" /><path d="M +110.16778645096929,40.76091001369059 L 110.43134457050473,43.3934325966984 " fill="rgb(50,65,12)" stroke="rgb(50,65,12)" stroke-width="2" /><path d="M +110.43134457050473,43.3934325966984 L 109.88575214325101,46.56095836497843 " fill="rgb(50,65,12)" stroke="rgb(50,65,12)" stroke-width="2" /><path d="M +109.88575214325101,46.56095836497843 L 109.21422034679563,50.27596376277506 " fill="rgb(50,65,12)" stroke="rgb(50,65,12)" stroke-width="2" /><path d="M +109.21422034679563,50.27596376277506 L 109.13400490014465,53.815304497256875 " fill="rgb(50,65,12)" stroke="rgb(50,65,12)" stroke-width="2" /><path d="M +109.13400490014465,53.815304497256875 L 108.1977192851773,56.557967403903604 " fill="rgb(50,65,12)" stroke="rgb(50,65,12)" stroke-width="2" /><path d="M +108.1977192851773,56.557967403903604 L 106.98996169297607,59.08258054591715 " fill="rgb(50,65,12)" stroke="rgb(50,65,12)" stroke-width="2" /><path d="M +106.98996169297607,59.08258054591715 L 106.05349547593505,61.330560425296426 " fill="rgb(50,65,12)" stroke="rgb(50,65,12)" stroke-width="2" /><path d="M +106.05349547593505,61.330560425296426 L 105.18651128737838,63.3423080239445 " fill="rgb(50,65,12)" stroke="rgb(50,65,12)" stroke-width="2" /><path d="M +105.18651128737838,63.3423080239445 L 104.11491561858566,64.36565242148936 " fill="rgb(50,65,12)" stroke="rgb(50,65,12)" stroke-width="2" /><path d="M +104.11491561858566,64.36565242148936 L 101.81217599837692,64.78858555294573 " fill="rgb(50,65,12)" stroke="rgb(50,65,12)" stroke-width="2" /><path d="M +101.81217599837692,64.78858555294573 L 100.24721051185043,65.6288055870682 " fill="rgb(50,65,12)" stroke="rgb(50,65,12)" stroke-width="2" /><path d="M +100.24721051185043,65.6288055870682 L 97.68536401717574,66.1517490837723 " fill="rgb(50,65,12)" stroke="rgb(50,65,12)" stroke-width="2" /><path d="M +97.68536401717574,66.1517490837723 L 95.32385827033431,66.50925643183291 " fill="rgb(50,65,12)" stroke="rgb(50,65,12)" stroke-width="2" /><path d="M +95.32385827033431,66.50925643183291 L 93.4138265940419,66.56849805824459 " fill="rgb(50,65,12)" stroke="rgb(50,65,12)" stroke-width="2" /><path d="M +93.4138265940419,66.56849805824459 L 91.6641516777745,65.71402184478939 " fill="rgb(50,65,12)" stroke="rgb(50,65,12)" stroke-width="2" /><path d="M +91.6641516777745,65.71402184478939 L 91.40755347340018,64.65922395698726 " fill="rgb(50,65,12)" stroke="rgb(50,65,12)" stroke-width="2" /><path d="M 114.54708556263358,49.69752256385982 " fill="rgb(239,191,189)" stroke="rgb(239,191,189)" stroke-width="2" /><path d="M +114.54708556263358,49.69752256385982 L 113.79657922117622,48.46898798458278 " fill="rgb(239,191,189)" stroke="rgb(239,191,189)" stroke-width="2" /><path d="M +113.79657922117622,48.46898798458278 L 113.54990982441814,47.94094012491405 " fill="rgb(239,191,189)" stroke="rgb(239,191,189)" stroke-width="2" /><path d="M +113.54990982441814,47.94094012491405 L 113.11653142599971,46.99578909389675 " fill="rgb(239,191,189)" stroke="rgb(239,191,189)" stroke-width="2" /><path d="M +113.11653142599971,46.99578909389675 L 113.50412198333652,46.258732659742236 " fill="rgb(239,191,189)" stroke="rgb(239,191,189)" stroke-width="2" /><path d="M 110.30108710555942,47.917711002752185 " fill="rgb(111,194,124)" stroke="rgb(111,194,124)" stroke-width="2" /><path d="M +110.30108710555942,47.917711002752185 L 110.6018437090388,48.28803719393909 " fill="rgb(111,194,124)" stroke="rgb(111,194,124)" stroke-width="2" /><path d="M +110.6018437090388,48.28803719393909 L 110.74411649434478,48.4971328061074 " fill="rgb(111,194,124)" stroke="rgb(111,194,124)" stroke-width="2" /><path d="M +110.74411649434478,48.4971328061074 L 111.43521232335479,48.580045802518725 " fill="rgb(111,194,124)" stroke="rgb(111,194,124)" stroke-width="2" /><path d="M +111.43521232335479,48.580045802518725 L 112.65736562936218,48.72169408015907 " fill="rgb(111,194,124)" stroke="rgb(111,194,124)" stroke-width="2" /><path d="M +112.65736562936218,48.72169408015907 L 114.42201823918731,49.20091232471168 " fill="rgb(111,194,124)" stroke="rgb(111,194,124)" stroke-width="2" /><path d="M +114.42201823918731,49.20091232471168 L 115.80788809983642,49.40472180955112 " fill="rgb(111,194,124)" stroke="rgb(111,194,124)" stroke-width="2" /><path d="M +115.80788809983642,49.40472180955112 L 117.3981074783078,49.70378733985126 " fill="rgb(111,194,124)" stroke="rgb(111,194,124)" stroke-width="2" /><path d="M +117.3981074783078,49.70378733985126 L 119.1878064367047,50.09412322752178 " fill="rgb(111,194,124)" stroke="rgb(111,194,124)" stroke-width="2" /><path d="M 119.0847913044563,34.584711415693164 " fill="rgb(155,81,89)" stroke="rgb(155,81,89)" stroke-width="2" /><path d="M +119.0847913044563,34.584711415693164 L 117.76837325273664,33.8131735753268 " fill="rgb(155,81,89)" stroke="rgb(155,81,89)" stroke-width="2" /><path d="M +117.76837325273664,33.8131735753268 L 117.44056669055135,32.60100941173732 " fill="rgb(155,81,89)" stroke="rgb(155,81,89)" stroke-width="2" /><path d="M +117.44056669055135,32.60100941173732 L 117.55768838702352,32.3634143602103 " fill="rgb(155,81,89)" stroke="rgb(155,81,89)" stroke-width="2" /><path d="M +117.55768838702352,32.3634143602103 L 117.556457059487,31.92830972187221 " fill="rgb(155,81,89)" stroke="rgb(155,81,89)" stroke-width="2" /><path d="M 128.01255656967987,44.908238692209125 " fill="rgb(138,40,188)" stroke="rgb(138,40,188)" stroke-width="2" /><path d="M +128.01255656967987,44.908238692209125 L 128.94068052063813,45.017513586208224 " fill="rgb(138,40,188)" stroke="rgb(138,40,188)" stroke-width="2" /><path d="M +128.94068052063813,45.017513586208224 L 129.9838479925238,45.04581610299647 " fill="rgb(138,40,188)" stroke="rgb(138,40,188)" stroke-width="2" /><path d="M +129.9838479925238,45.04581610299647 L 130.8094727564894,44.888493249192834 " fill="rgb(138,40,188)" stroke="rgb(138,40,188)" stroke-width="2" /><path d="M +130.8094727564894,44.888493249192834 L 132.35840161333908,44.97907810099423 " fill="rgb(138,40,188)" stroke="rgb(138,40,188)" stroke-width="2" /><path d="M +132.35840161333908,44.97907810099423 L 132.7122404743277,45.48345188982785 " fill="rgb(138,40,188)" stroke="rgb(138,40,188)" stroke-width="2" /><path d="M +132.7122404743277,45.48345188982785 L 133.31625206957688,46.734630512073636 " fill="rgb(138,40,188)" stroke="rgb(138,40,188)" stroke-width="2" /><path d="M +133.31625206957688,46.734630512073636 L 133.57335050593247,48.7180749643594 " fill="rgb(138,40,188)" stroke="rgb(138,40,188)" stroke-width="2" /><path d="M +133.57335050593247,48.7180749643594 L 133.27180184613098,51.11539404280484 " fill="rgb(138,40,188)" stroke="rgb(138,40,188)" stroke-width="2" /><path d="M 131.0599183012091,51.32103246636689 " fill="rgb(34,35,224)" stroke="rgb(34,35,224)" stroke-width="2" /><path d="M +131.0599183012091,51.32103246636689 L 129.65760578404297,51.22138390876353 " fill="rgb(34,35,224)" stroke="rgb(34,35,224)" stroke-width="2" /><path d="M +129.65760578404297,51.22138390876353 L 128.36691667328705,51.42359630204737 " fill="rgb(34,35,224)" stroke="rgb(34,35,224)" stroke-width="2" /><path d="M +128.36691667328705,51.42359630204737 L 126.492478625878,51.50717677362263 " fill="rgb(34,35,224)" stroke="rgb(34,35,224)" stroke-width="2" /><path d="M +126.492478625878,51.50717677362263 L 125.3275797535025,51.64093157835305 " fill="rgb(34,35,224)" stroke="rgb(34,35,224)" stroke-width="2" /><path d="M +125.3275797535025,51.64093157835305 L 124.69408537636627,51.83039650507271 " fill="rgb(34,35,224)" stroke="rgb(34,35,224)" stroke-width="2" /><path d="M +124.69408537636627,51.83039650507271 L 124.94265887330403,51.82393700722605 " fill="rgb(34,35,224)" stroke="rgb(34,35,224)" stroke-width="2" /><path d="M +124.94265887330403,51.82393700722605 L 125.32798445413937,52.10096032265574 " fill="rgb(34,35,224)" stroke="rgb(34,35,224)" stroke-width="2" /><path d="M +125.32798445413937,52.10096032265574 L 126.25992316196789,52.3456377023831 " fill="rgb(34,35,224)" stroke="rgb(34,35,224)" stroke-width="2" /><path d="M 135.7240354437672,53.516153120435774 " fill="rgb(15,161,210)" stroke="rgb(15,161,210)" stroke-width="2" /><path d="M +135.7240354437672,53.516153120435774 L 137.33132904957165,53.69247800949961 " fill="rgb(15,161,210)" stroke="rgb(15,161,210)" stroke-width="2" /><path d="M +137.33132904957165,53.69247800949961 L 138.7241383213841,53.04463512543589 " fill="rgb(15,161,210)" stroke="rgb(15,161,210)" stroke-width="2" /><path d="M +138.7241383213841,53.04463512543589 L 141.16321069191326,51.76176566723734 " fill="rgb(15,161,210)" stroke="rgb(15,161,210)" stroke-width="2" /><path d="M +141.16321069191326,51.76176566723734 L 143.62437778900494,49.715895839966834 " fill="rgb(15,161,210)" stroke="rgb(15,161,210)" stroke-width="2" /><path d="M +143.62437778900494,49.715895839966834 L 146.3681605477177,48.16784591320902 " fill="rgb(15,161,210)" stroke="rgb(15,161,210)" stroke-width="2" /><path d="M +146.3681605477177,48.16784591320902 L 148.95470673035015,46.64872915390879 " fill="rgb(15,161,210)" stroke="rgb(15,161,210)" stroke-width="2" /><path d="M +148.95470673035015,46.64872915390879 L 150.62361532638897,45.70898760203272 " fill="rgb(15,161,210)" stroke="rgb(15,161,210)" stroke-width="2" /><path d="M +150.62361532638897,45.70898760203272 L 151.6808238644444,45.06138736847788 " fill="rgb(15,161,210)" stroke="rgb(15,161,210)" stroke-width="2" /><path d="M +151.6808238644444,45.06138736847788 L 152.0619119424664,44.79610563162714 " fill="rgb(15,161,210)" stroke="rgb(15,161,210)" stroke-width="2" /><path d="M +152.0619119424664,44.79610563162714 L 152.11980362053146,44.523385354317725 " fill="rgb(15,161,210)" stroke="rgb(15,161,210)" stroke-width="2" /><path d="M +152.11980362053146,44.523385354317725 L 151.98798276300658,44.292929702438414 " fill="rgb(15,161,210)" stroke="rgb(15,161,210)" stroke-width="2" /><path d="M +151.98798276300658,44.292929702438414 L 151.79325917179813,43.96967383567244 " fill="rgb(15,161,210)" stroke="rgb(15,161,210)" stroke-width="2" /><path d="M +151.79325917179813,43.96967383567244 L 150.8171955626749,44.13620335701853 " fill="rgb(15,161,210)" stroke="rgb(15,161,210)" stroke-width="2" /><path d="M +150.8171955626749,44.13620335701853 L 149.278970507934,44.73374838475138 " fill="rgb(15,161,210)" stroke="rgb(15,161,210)" stroke-width="2" /><path d="M +149.278970507934,44.73374838475138 L 147.52817442829837,46.2154250824824 " fill="rgb(15,161,210)" stroke="rgb(15,161,210)" stroke-width="2" /><path d="M +147.52817442829837,46.2154250824824 L 146.47025647576083,48.960465976037085 " fill="rgb(15,161,210)" stroke="rgb(15,161,210)" stroke-width="2" /><path d="M +146.47025647576083,48.960465976037085 L 145.2598624509119,51.105954953469336 " fill="rgb(15,161,210)" stroke="rgb(15,161,210)" stroke-width="2" /><path d="M +145.2598624509119,51.105954953469336 L 145.14253884370555,52.6973347151652 " fill="rgb(15,161,210)" stroke="rgb(15,161,210)" stroke-width="2" /><path d="M +145.14253884370555,52.6973347151652 L 145.39107921536197,52.926115029491484 " fill="rgb(15,161,210)" stroke="rgb(15,161,210)" stroke-width="2" /><path d="M +145.39107921536197,52.926115029491484 L 147.00382986481418,53.00986653659493 " fill="rgb(15,161,210)" stroke="rgb(15,161,210)" stroke-width="2" /><path d="M +147.00382986481418,53.00986653659493 L 149.03321400101413,52.47266543004662 " fill="rgb(15,161,210)" stroke="rgb(15,161,210)" stroke-width="2" /><path d="M +149.03321400101413,52.47266543004662 L 150.6469313185953,51.21409380529076 " fill="rgb(15,161,210)" stroke="rgb(15,161,210)" stroke-width="2" /><path d="M +150.6469313185953,51.21409380529076 L 152.1044440549158,50.0650991210714 " fill="rgb(15,161,210)" stroke="rgb(15,161,210)" stroke-width="2" /><path d="M +152.1044440549158,50.0650991210714 L 152.5991567056917,49.34525066707283 " fill="rgb(15,161,210)" stroke="rgb(15,161,210)" stroke-width="2" /><path d="M +152.5991567056917,49.34525066707283 L 152.2858698349737,49.029550791718066 " fill="rgb(15,161,210)" stroke="rgb(15,161,210)" stroke-width="2" /><path d="M +152.2858698349737,49.029550791718066 L 152.6874844711565,49.342281700111926 " fill="rgb(15,161,210)" stroke="rgb(15,161,210)" stroke-width="2" /><path d="M +152.6874844711565,49.342281700111926 L 152.53508636172046,50.34828364942223 " fill="rgb(15,161,210)" stroke="rgb(15,161,210)" stroke-width="2" /><path d="M +152.53508636172046,50.34828364942223 L 152.3946582954668,52.04032039735466 " fill="rgb(15,161,210)" stroke="rgb(15,161,210)" stroke-width="2" /><path d="M +152.3946582954668,52.04032039735466 L 152.79234546239604,53.63558077905327 " fill="rgb(15,161,210)" stroke="rgb(15,161,210)" stroke-width="2" /><path d="M +152.79234546239604,53.63558077905327 L 152.72817180867423,54.568469108082354 " fill="rgb(15,161,210)" stroke="rgb(15,161,210)" stroke-width="2" /><path d="M +152.72817180867423,54.568469108082354 L 153.31587819571723,55.164499522186816 " fill="rgb(15,161,210)" stroke="rgb(15,161,210)" stroke-width="2" /><path d="M +153.31587819571723,55.164499522186816 L 153.41078003312577,55.23495183233172 " fill="rgb(15,161,210)" stroke="rgb(15,161,210)" stroke-width="2" /><path d="M +153.41078003312577,55.23495183233172 L 153.2297986652993,54.991442256607115 " fill="rgb(15,161,210)" stroke="rgb(15,161,210)" stroke-width="2" /><path d="M +153.2297986652993,54.991442256607115 L 153.3396856393956,54.77890915516764 " fill="rgb(15,161,210)" stroke="rgb(15,161,210)" stroke-width="2" /><path d="M +153.3396856393956,54.77890915516764 L 153.58688130046357,53.41174788121134 " fill="rgb(15,161,210)" stroke="rgb(15,161,210)" stroke-width="2" /><path d="M +153.58688130046357,53.41174788121134 L 154.5254677143239,51.477269121445715 " fill="rgb(15,161,210)" stroke="rgb(15,161,210)" stroke-width="2" /><path d="M 158.35983284379472,45.59647936467081 " fill="rgb(35,109,138)" stroke="rgb(35,109,138)" stroke-width="2" /><path d="M +158.35983284379472,45.59647936467081 L 157.82195570136537,47.58973736409098 " fill="rgb(35,109,138)" stroke="rgb(35,109,138)" stroke-width="2" /><path d="M +157.82195570136537,47.58973736409098 L 158.32279117967119,50.067688652314246 " fill="rgb(35,109,138)" stroke="rgb(35,109,138)" stroke-width="2" /><path d="M +158.32279117967119,50.067688652314246 L 158.1001240220212,52.79136867169291 " fill="rgb(35,109,138)" stroke="rgb(35,109,138)" stroke-width="2" /><path d="M +158.1001240220212,52.79136867169291 L 157.78198753859033,54.67364198807627 " fill="rgb(35,109,138)" stroke="rgb(35,109,138)" stroke-width="2" /><path d="M +157.78198753859033,54.67364198807627 L 157.48005776669015,56.24318284634501 " fill="rgb(35,109,138)" stroke="rgb(35,109,138)" stroke-width="2" /><path d="M +157.48005776669015,56.24318284634501 L 156.71609394814004,57.15979636553675 " fill="rgb(35,109,138)" stroke="rgb(35,109,138)" stroke-width="2" /><path d="M +156.71609394814004,57.15979636553675 L 156.44821082617273,57.54566926602274 " fill="rgb(35,109,138)" stroke="rgb(35,109,138)" stroke-width="2" /><path d="M 158.904260268464,36.44920510891825 " fill="rgb(56,214,225)" stroke="rgb(56,214,225)" stroke-width="2" /><path d="M +158.904260268464,36.44920510891825 L 158.40458931590547,36.19764594081789 " fill="rgb(56,214,225)" stroke="rgb(56,214,225)" stroke-width="2" /><path d="M +158.40458931590547,36.19764594081789 L 158.36169840584625,35.990069263614714 " fill="rgb(56,214,225)" stroke="rgb(56,214,225)" stroke-width="2" /><path d="M +158.36169840584625,35.990069263614714 L 158.55052024315228,35.98805214301683 " fill="rgb(56,214,225)" stroke="rgb(56,214,225)" stroke-width="2" /><path d="M +158.55052024315228,35.98805214301683 L 158.40491724203457,35.94895410002209 " fill="rgb(56,214,225)" stroke="rgb(56,214,225)" stroke-width="2" /><path d="M +158.40491724203457,35.94895410002209 L 158.56121391247143,36.07637921930291 " fill="rgb(56,214,225)" stroke="rgb(56,214,225)" stroke-width="2" /><path d="M +158.56121391247143,36.07637921930291 L 159.41778713653912,36.18905263603665 " fill="rgb(56,214,225)" stroke="rgb(56,214,225)" stroke-width="2" /><path d="M +159.41778713653912,36.18905263603665 L 160.44794386814465,36.390226582298055 " fill="rgb(56,214,225)" stroke="rgb(56,214,225)" stroke-width="2" /><path d="M +160.44794386814465,36.390226582298055 L 161.844181360706,36.73769826651551 " fill="rgb(56,214,225)" stroke="rgb(56,214,225)" stroke-width="2" /><path d="M 170.55631953667034,48.26165075064637 " fill="rgb(24,11,146)" stroke="rgb(24,11,146)" stroke-width="2" /><path d="M +170.55631953667034,48.26165075064637 L 171.15626996944775,48.33418030501343 " fill="rgb(24,11,146)" stroke="rgb(24,11,146)" stroke-width="2" /><path d="M +171.15626996944775,48.33418030501343 L 171.0284035820805,48.064228305825964 " fill="rgb(24,11,146)" stroke="rgb(24,11,146)" stroke-width="2" /><path d="M +171.0284035820805,48.064228305825964 L 170.93805010805954,48.06744608283043 " fill="rgb(24,11,146)" stroke="rgb(24,11,146)" stroke-width="2" /><path d="M +170.93805010805954,48.06744608283043 L 170.6481754053675,48.26969572901726 " fill="rgb(24,11,146)" stroke="rgb(24,11,146)" stroke-width="2" /><path d="M +170.6481754053675,48.26969572901726 L 169.43810992132057,48.745280385017395 " fill="rgb(24,11,146)" stroke="rgb(24,11,146)" stroke-width="2" /><path d="M +169.43810992132057,48.745280385017395 L 168.58843313346733,50.21564221382141 " fill="rgb(24,11,146)" stroke="rgb(24,11,146)" stroke-width="2" /><path d="M +168.58843313346733,50.21564221382141 L 167.44215153346886,52.33403754234314 " fill="rgb(24,11,146)" stroke="rgb(24,11,146)" stroke-width="2" /><path d="M +167.44215153346886,52.33403754234314 L 167.47140531803598,54.4212691783905 " fill="rgb(24,11,146)" stroke="rgb(24,11,146)" stroke-width="2" /><path d="M +167.47140531803598,54.4212691783905 L 167.9845169093751,56.438437938690186 " fill="rgb(24,11,146)" stroke="rgb(24,11,146)" stroke-width="2" /><path d="M +167.9845169093751,56.438437938690186 L 168.45450898076524,57.46762204170227 " fill="rgb(24,11,146)" stroke="rgb(24,11,146)" stroke-width="2" /><path d="M +168.45450898076524,57.46762204170227 L 169.96022363568773,58.35430896282196 " fill="rgb(24,11,146)" stroke="rgb(24,11,146)" stroke-width="2" /><path d="M +169.96022363568773,58.35430896282196 L 171.72480257417192,58.79779288172722 " fill="rgb(24,11,146)" stroke="rgb(24,11,146)" stroke-width="2" /><path d="M +171.72480257417192,58.79779288172722 L 172.34281643296708,59.11783438920975 " fill="rgb(24,11,146)" stroke="rgb(24,11,146)" stroke-width="2" /><path d="M +172.34281643296708,59.11783438920975 L 173.43034728433122,59.62703365087509 " fill="rgb(24,11,146)" stroke="rgb(24,11,146)" stroke-width="2" /><path d="M +173.43034728433122,59.62703365087509 L 173.20747086967458,59.903142273426056 " fill="rgb(24,11,146)" stroke="rgb(24,11,146)" stroke-width="2" /><path d="M +173.20747086967458,59.903142273426056 L 173.00647904540529,60.29051983356476 " fill="rgb(24,11,146)" stroke="rgb(24,11,146)" stroke-width="2" /><path d="M +173.00647904540529,60.29051983356476 L 172.4189659562253,60.739470571279526 " fill="rgb(24,11,146)" stroke="rgb(24,11,146)" stroke-width="2" /><path d="M +172.4189659562253,60.739470571279526 L 170.23990215922822,60.52756305038929 " fill="rgb(24,11,146)" stroke="rgb(24,11,146)" stroke-width="2" /><path d="M +170.23990215922822,60.52756305038929 L 168.15310635234346,60.2580890506506 " fill="rgb(24,11,146)" stroke="rgb(24,11,146)" stroke-width="2" /><path d="M +168.15310635234346,60.2580890506506 L 165.35963191653718,59.368243023753166 " fill="rgb(24,11,146)" stroke="rgb(24,11,146)" stroke-width="2" /><path d="M +165.35963191653718,59.368243023753166 L 163.72468735839357,58.048520132899284 " fill="rgb(24,11,146)" stroke="rgb(24,11,146)" stroke-width="2" /><path d="M +163.72468735839357,58.048520132899284 L 162.2718460765027,55.97167281806469 " fill="rgb(24,11,146)" stroke="rgb(24,11,146)" stroke-width="2" /><path d="M +162.2718460765027,55.97167281806469 L 162.2516421508335,53.545348450541496 " fill="rgb(24,11,146)" stroke="rgb(24,11,146)" stroke-width="2" /><path d="M +162.2516421508335,53.545348450541496 L 164.31048171038856,51.36147980391979 " fill="rgb(24,11,146)" stroke="rgb(24,11,146)" stroke-width="2" /><path d="M 185.08549468035926,40.152988478541374 " fill="rgb(211,62,185)" stroke="rgb(211,62,185)" stroke-width="2" /><path d="M +185.08549468035926,40.152988478541374 L 184.82538415308227,40.208340890705585 " fill="rgb(211,62,185)" stroke="rgb(211,62,185)" stroke-width="2" /><path d="M +184.82538415308227,40.208340890705585 L 185.40404178018798,40.14495833963156 " fill="rgb(211,62,185)" stroke="rgb(211,62,185)" stroke-width="2" /><path d="M +185.40404178018798,40.14495833963156 L 185.3512031492137,40.07359855622053 " fill="rgb(211,62,185)" stroke="rgb(211,62,185)" stroke-width="2" /><path d="M +185.3512031492137,40.07359855622053 L 185.03110480870237,39.93577153235674 " fill="rgb(211,62,185)" stroke="rgb(211,62,185)" stroke-width="2" /><path d="M +185.03110480870237,39.93577153235674 L 184.24709952439298,39.79494205862284 " fill="rgb(211,62,185)" stroke="rgb(211,62,185)" stroke-width="2" /><path d="M +184.24709952439298,39.79494205862284 L 182.72423065270414,39.529374696314335 " fill="rgb(211,62,185)" stroke="rgb(211,62,185)" stroke-width="2" /><path d="M +182.72423065270414,39.529374696314335 L 181.41214812363614,39.23371247202158 " fill="rgb(211,62,185)" stroke="rgb(211,62,185)" stroke-width="2" /><path d="M +181.41214812363614,39.23371247202158 L 179.96716070736875,39.20461813360453 " fill="rgb(211,62,185)" stroke="rgb(211,62,185)" stroke-width="2" /><path d="M +179.96716070736875,39.20461813360453 L 178.60193312729825,39.59596914798021 " fill="rgb(211,62,185)" stroke="rgb(211,62,185)" stroke-width="2" /><path d="M +178.60193312729825,39.59596914798021 L 177.0664784964465,40.802400298416615 " fill="rgb(211,62,185)" stroke="rgb(211,62,185)" stroke-width="2" /><path d="M +177.0664784964465,40.802400298416615 L 174.81084681118955,42.768788285553455 " fill="rgb(211,62,185)" stroke="rgb(211,62,185)" stroke-width="2" /><path d="M +174.81084681118955,42.768788285553455 L 172.86235261525144,45.74672717601061 " fill="rgb(211,62,185)" stroke="rgb(211,62,185)" stroke-width="2" /><path d="M +172.86235261525144,45.74672717601061 L 171.644730096712,49.025287099182606 " fill="rgb(211,62,185)" stroke="rgb(211,62,185)" stroke-width="2" /><path d="M +171.644730096712,49.025287099182606 L 171.4760725852393,51.74771589785814 " fill="rgb(211,62,185)" stroke="rgb(211,62,185)" stroke-width="2" /><path d="M +171.4760725852393,51.74771589785814 L 171.84486511911382,53.83286304026842 " fill="rgb(211,62,185)" stroke="rgb(211,62,185)" stroke-width="2" /><path d="M +171.84486511911382,53.83286304026842 L 172.44608620370855,55.57592875510454 " fill="rgb(211,62,185)" stroke="rgb(211,62,185)" stroke-width="2" /><path d="M +172.44608620370855,55.57592875510454 L 173.74154666627874,56.75149495154619 " fill="rgb(211,62,185)" stroke="rgb(211,62,185)" stroke-width="2" /><path d="M +173.74154666627874,56.75149495154619 L 174.60509786571492,57.10005787760019 " fill="rgb(211,62,185)" stroke="rgb(211,62,185)" stroke-width="2" /><path d="M +174.60509786571492,57.10005787760019 L 175.98987994159688,57.22197782993317 " fill="rgb(211,62,185)" stroke="rgb(211,62,185)" stroke-width="2" /><path d="M +175.98987994159688,57.22197782993317 L 178.18468031848897,56.842952609062195 " fill="rgb(211,62,185)" stroke="rgb(211,62,185)" stroke-width="2" /><path d="M +178.18468031848897,56.842952609062195 L 180.06878921951284,55.71525835990906 " fill="rgb(211,62,185)" stroke="rgb(211,62,185)" stroke-width="2" /><path d="M +180.06878921951284,55.71525835990906 L 182.21577188934316,53.51208472251892 " fill="rgb(211,62,185)" stroke="rgb(211,62,185)" stroke-width="2" /><path d="M +182.21577188934316,53.51208472251892 L 184.96169493164052,50.87305283546448 " fill="rgb(211,62,185)" stroke="rgb(211,62,185)" stroke-width="2" /><path d="M +184.96169493164052,50.87305283546448 L 187.08319232429494,47.37090706825256 " fill="rgb(211,62,185)" stroke="rgb(211,62,185)" stroke-width="2" /><path d="M +187.08319232429494,47.37090706825256 L 188.33861718143453,43.650943756103516 " fill="rgb(211,62,185)" stroke="rgb(211,62,185)" stroke-width="2" /><path d="M +188.33861718143453,43.650943756103516 L 189.10496703351964,39.8477578163147 " fill="rgb(211,62,185)" stroke="rgb(211,62,185)" stroke-width="2" /><path d="M +189.10496703351964,39.8477578163147 L 189.45493716563215,35.96287989616394 " fill="rgb(211,62,185)" stroke="rgb(211,62,185)" stroke-width="2" /><path d="M +189.45493716563215,35.96287989616394 L 188.69320446814527,32.299644231796265 " fill="rgb(211,62,185)" stroke="rgb(211,62,185)" stroke-width="2" /><path d="M +188.69320446814527,32.299644231796265 L 188.47310582365026,29.605507135391235 " fill="rgb(211,62,185)" stroke="rgb(211,62,185)" stroke-width="2" /><path d="M +188.47310582365026,29.605507135391235 L 187.784268712654,27.388930559158325 " fill="rgb(211,62,185)" stroke="rgb(211,62,185)" stroke-width="2" /><path d="M +187.784268712654,27.388930559158325 L 187.37585881914129,25.964261889457703 " fill="rgb(211,62,185)" stroke="rgb(211,62,185)" stroke-width="2" /><path d="M +187.37585881914129,25.964261889457703 L 186.78974125350942,25.140244364738464 " fill="rgb(211,62,185)" stroke="rgb(211,62,185)" stroke-width="2" /><path d="M +186.78974125350942,25.140244364738464 L 186.86289237256278,25.017177492380142 " fill="rgb(211,62,185)" stroke="rgb(211,62,185)" stroke-width="2" /><path d="M +186.86289237256278,25.017177492380142 L 186.843419333949,25.0 " fill="rgb(211,62,185)" stroke="rgb(211,62,185)" stroke-width="2" /><path d="M +186.843419333949,25.0 L 186.50624989534845,25.46480283141136 " fill="rgb(211,62,185)" stroke="rgb(211,62,185)" stroke-width="2" /><path d="M +186.50624989534845,25.46480283141136 L 185.5862069633149,27.36615690588951 " fill="rgb(211,62,185)" stroke="rgb(211,62,185)" stroke-width="2" /><path d="M +185.5862069633149,27.36615690588951 L 184.7429047730111,30.893996566534042 " fill="rgb(211,62,185)" stroke="rgb(211,62,185)" stroke-width="2" /><path d="M +184.7429047730111,30.893996566534042 L 183.71927081610193,34.52673253417015 " fill="rgb(211,62,185)" stroke="rgb(211,62,185)" stroke-width="2" /><path d="M +183.71927081610193,34.52673253417015 L 183.189234962716,37.84080013632774 " fill="rgb(211,62,185)" stroke="rgb(211,62,185)" stroke-width="2" /><path d="M +183.189234962716,37.84080013632774 L 183.28244095112314,40.76707538962364 " fill="rgb(211,62,185)" stroke="rgb(211,62,185)" stroke-width="2" /><path d="M +183.28244095112314,40.76707538962364 L 183.39379861022462,43.755719274282455 " fill="rgb(211,62,185)" stroke="rgb(211,62,185)" stroke-width="2" /><path d="M +183.39379861022462,43.755719274282455 L 184.3246627059125,47.03715094923973 " fill="rgb(211,62,185)" stroke="rgb(211,62,185)" stroke-width="2" /><path d="M +184.3246627059125,47.03715094923973 L 184.52870746518602,49.93924793601036 " fill="rgb(211,62,185)" stroke="rgb(211,62,185)" stroke-width="2" /><path d="M +184.52870746518602,49.93924793601036 L 184.7212989833497,52.327093213796616 " fill="rgb(211,62,185)" stroke="rgb(211,62,185)" stroke-width="2" /><path d="M +184.7212989833497,52.327093213796616 L 185.08692651058664,53.68923005461693 " fill="rgb(211,62,185)" stroke="rgb(211,62,185)" stroke-width="2" /><path d="M +185.08692651058664,53.68923005461693 L 185.74049328829278,54.65712884068489 " fill="rgb(211,62,185)" stroke="rgb(211,62,185)" stroke-width="2" /><path d="M +185.74049328829278,54.65712884068489 L 186.08676560784806,55.13172936439514 " fill="rgb(211,62,185)" stroke="rgb(211,62,185)" stroke-width="2" /><path d="M +186.08676560784806,55.13172936439514 L 186.39812239076127,55.24848632514477 " fill="rgb(211,62,185)" stroke="rgb(211,62,185)" stroke-width="2" /><path d="M 237.08380278016557,42.3126914948225 " fill="rgb(11,54,143)" stroke="rgb(11,54,143)" stroke-width="2" /><path d="M +237.08380278016557,42.3126914948225 L 237.3919644560956,42.637225314974785 " fill="rgb(11,54,143)" stroke="rgb(11,54,143)" stroke-width="2" /><path d="M +237.3919644560956,42.637225314974785 L 237.15343063141336,42.69540707394481 " fill="rgb(11,54,143)" stroke="rgb(11,54,143)" stroke-width="2" /><path d="M +237.15343063141336,42.69540707394481 L 237.204754671111,43.28799722716212 " fill="rgb(11,54,143)" stroke="rgb(11,54,143)" stroke-width="2" /><path d="M +237.204754671111,43.28799722716212 L 237.0904347729229,45.417186956852674 " fill="rgb(11,54,143)" stroke="rgb(11,54,143)" stroke-width="2" /><path d="M +237.0904347729229,45.417186956852674 L 236.91404935534229,48.05997274443507 " fill="rgb(11,54,143)" stroke="rgb(11,54,143)" stroke-width="2" /><path d="M +236.91404935534229,48.05997274443507 L 237.10156151468982,50.58479402586818 " fill="rgb(11,54,143)" stroke="rgb(11,54,143)" stroke-width="2" /><path d="M +237.10156151468982,50.58479402586818 L 236.38633921559085,52.471375804394484 " fill="rgb(11,54,143)" stroke="rgb(11,54,143)" stroke-width="2" /><path d="M +236.38633921559085,52.471375804394484 L 235.47275379116763,53.791008453816175 " fill="rgb(11,54,143)" stroke="rgb(11,54,143)" stroke-width="2" /><path d="M +235.47275379116763,53.791008453816175 L 234.81911185200443,54.47869811579585 " fill="rgb(11,54,143)" stroke="rgb(11,54,143)" stroke-width="2" /></svg>