<?xml version="1.0" encoding="utf-8" ?>
<svg baseProfile="full" height="330.9742287635806" version="1.1" width="545.4525002330546" xmlns="http://www.w3.org/2000/svg" xmlns:ev="http://www.w3.org/2001/xml-events" xmlns:xlink="http://www.w3.org/1999/xlink"><defs /><rect fill="white" height="330.9742287635806" width="545.4525002330546" x="0" y="0" /><path d="M 31.773934173583985,303.7539782524111 " fill="rgb(56,10,6)" stroke="rgb(56,10,6)" stroke-width="2" /><path d="M +31.773934173583985,303.7539782524111 L 32.10937960147858,305.49869108200096 " fill="rgb(46,197,41)" stroke="rgb(46,197,41)" stroke-width="2" /><path d="M +32.10937960147858,305.49869108200096 L 32.31719496250153,305.9742287635805 " fill="rgb(158,48,79)" stroke="rgb(158,48,79)" stroke-width="2" /><path d="M +32.31719496250153,305.9742287635805 L 33.11562850475312,305.31303544044516 " fill="rgb(14,70,225)" stroke="rgb(14,70,225)" stroke-width="2" /><path d="M +33.11562850475312,305.31303544044516 L 33.98568150997163,303.6581045627596 " fill="rgb(56,86,214)" stroke="rgb(56,86,214)" stroke-width="2" /><path d="M +33.98568150997163,303.6581045627596 L 35.58269765377045,301.1856800556185 " fill="rgb(191,107,100)" stroke="rgb(191,107,100)" stroke-width="2" /><path d="M +35.58269765377045,301.1856800556185 L 36.9011159658432,299.6074577808382 " fill="rgb(109,38,28)" stroke="rgb(109,38,28)" stroke-width="2" /><path d="M +36.9011159658432,299.6074577808382 L 38.858198904991156,299.0735428333285 " fill="rgb(122,85,166)" stroke="rgb(122,85,166)" stroke-width="2" /><path d="M +38.858198904991156,299.0735428333285 L 40.65628259181977,298.61355047225976 " fill="rgb(141,85,101)" stroke="rgb(141,85,101)" stroke-width="2" /><path d="M +40.65628259181977,298.61355047225976 L 42.26115987300873,298.10465135574367 " fill="rgb(143,130,8)" stroke="rgb(143,130,8)" stroke-width="2" /><path d="M +42.26115987300873,298.10465135574367 L 40.07321698665619,294.90689554214504 " fill="rgb(45,173,175)" stroke="rgb(45,173,175)" stroke-width="2" /><path d="M +40.07321698665619,294.90689554214504 L 37.892379355430606,290.94915475845363 " fill="rgb(111,121,165)" stroke="rgb(111,121,165)" stroke-width="2" /><path d="M +37.892379355430606,290.94915475845363 L 36.461626982688905,287.99401769638087 " fill="rgb(25,172,231)" stroke="rgb(25,172,231)" stroke-width="2" /><path d="M +36.461626982688905,287.99401769638087 L 36.61583499908448,288.26180348396326 " fill="rgb(28,87,188)" stroke="rgb(28,87,188)" stroke-width="2" /><path d="M +36.61583499908448,288.26180348396326 L 36.53184918165207,288.03877739906335 " fill="rgb(105,96,2)" stroke="rgb(105,96,2)" stroke-width="2" /><path d="M +36.53184918165207,288.03877739906335 L 36.28844968080521,289.4781146526339 " fill="rgb(2,166,121)" stroke="rgb(2,166,121)" stroke-width="2" /><path d="M +36.28844968080521,289.4781146526339 L 35.54443942308426,292.0358918666842 " fill="rgb(224,72,164)" stroke="rgb(224,72,164)" stroke-width="2" /><path d="M +35.54443942308426,292.0358918666842 L 34.53087455034257,295.3305581569674 " fill="rgb(111,201,213)" stroke="rgb(111,201,213)" stroke-width="2" /><path d="M +34.53087455034257,295.3305581569674 L 33.47299777269364,299.8264016628268 " fill="rgb(69,87,153)" stroke="rgb(69,87,153)" stroke-width="2" /><path d="M +33.47299777269364,299.8264016628268 L 32.15934048891068,304.48438696861297 " fill="rgb(156,204,55)" stroke="rgb(156,204,55)" stroke-width="2" /><path d="M +32.15934048891068,304.48438696861297 L 32.7976392865181,304.8063990592959 " fill="rgb(76,117,147)" stroke="rgb(76,117,147)" stroke-width="2" /><path d="M +32.7976392865181,304.8063990592959 L 34.3259481549263,304.55422947406794 " fill="rgb(42,13,226)" stroke="rgb(42,13,226)" stroke-width="2" /><path d="M +34.3259481549263,304.55422947406794 L 36.21859875917435,303.0525724649432 " fill="rgb(30,214,73)" stroke="rgb(30,214,73)" stroke-width="2" /><path d="M +36.21859875917435,303.0525724649432 L 36.92212430238724,301.4459884881976 " fill="rgb(51,144,106)" stroke="rgb(51,144,106)" stroke-width="2" /><path d="M +36.92212430238724,301.4459884881976 L 37.146805393695836,299.79952929019953 " fill="rgb(204,18,46)" stroke="rgb(204,18,46)" stroke-width="2" /><path d="M +37.146805393695836,299.79952929019953 L 38.2570932507515,297.75134871006037 " fill="rgb(25,199,109)" stroke="rgb(25,199,109)" stroke-width="2" /><path d="M +38.2570932507515,297.75134871006037 L 40.02563058137894,295.3152796030047 " fill="rgb(63,195,183)" stroke="rgb(63,195,183)" stroke-width="2" /><path d="M +40.02563058137894,295.3152796030047 L 41.72202244997025,292.51355001926447 " fill="rgb(22,76,54)" stroke="rgb(22,76,54)" stroke-width="2" /><path d="M +41.72202244997025,292.51355001926447 L 43.80354634523392,289.4043730020526 " fill="rgb(187,189,7)" stroke="rgb(187,189,7)" stroke-width="2" /><path d="M +43.80354634523392,289.4043730020526 L 46.249270069599156,286.41795485019713 " fill="rgb(42,104,14)" stroke="rgb(42,104,14)" stroke-width="2" /><path d="M +46.249270069599156,286.41795485019713 L 48.47573872804642,284.0913530588153 " fill="rgb(22,3,135)" stroke="rgb(22,3,135)" stroke-width="2" /><path d="M +48.47573872804642,284.0913530588153 L 48.73357647657395,283.2551562547687 " fill="rgb(142,162,85)" stroke="rgb(142,162,85)" stroke-width="2" /><path d="M +48.73357647657395,283.2551562547687 L 49.10017479658128,280.21707985401184 " fill="rgb(191,58,73)" stroke="rgb(191,58,73)" stroke-width="2" /><path d="M +49.10017479658128,280.21707985401184 L 49.21850708723069,276.5257457017902 " fill="rgb(26,97,65)" stroke="rgb(26,97,65)" stroke-width="2" /><path d="M +49.21850708723069,276.5257457017902 L 49.80374258756638,273.7995103120807 " fill="rgb(116,66,124)" stroke="rgb(116,66,124)" stroke-width="2" /><path d="M +49.80374258756638,273.7995103120807 L 50.12955886125565,269.16512997150454 " fill="rgb(22,135,184)" stroke="rgb(22,135,184)" stroke-width="2" /><path d="M +50.12955886125565,269.16512997150454 L 50.64627062082291,266.59372417926824 " fill="rgb(231,180,227)" stroke="rgb(231,180,227)" stroke-width="2" /><path d="M +50.64627062082291,266.59372417926824 L 51.92900816202164,264.5153184175495 " fill="rgb(166,111,26)" stroke="rgb(166,111,26)" stroke-width="2" /><path d="M +51.92900816202164,264.5153184175495 L 53.70036283731461,263.49884788990056 " fill="rgb(66,18,57)" stroke="rgb(66,18,57)" stroke-width="2" /><path d="M +53.70036283731461,263.49884788990056 L 55.151499617099766,261.6542893648151 " fill="rgb(19,211,35)" stroke="rgb(19,211,35)" stroke-width="2" /><path d="M +55.151499617099766,261.6542893648151 L 56.231922972202305,260.07514631748234 " fill="rgb(124,166,2)" stroke="rgb(124,166,2)" stroke-width="2" /><path d="M +56.231922972202305,260.07514631748234 L 57.058195936679844,256.86079924106633 " fill="rgb(222,238,214)" stroke="rgb(222,238,214)" stroke-width="2" /><path d="M +57.058195936679844,256.86079924106633 L 57.85258613824845,254.7667248010639 " fill="rgb(55,4,97)" stroke="rgb(55,4,97)" stroke-width="2" /><path d="M +57.85258613824845,254.7667248010639 L 58.71206127405167,251.8013231515888 " fill="rgb(17,179,167)" stroke="rgb(17,179,167)" stroke-width="2" /><path d="M +58.71206127405167,251.8013231515888 L 59.19070283174515,249.85097792148628 " fill="rgb(214,40,36)" stroke="rgb(214,40,36)" stroke-width="2" /><path d="M +59.19070283174515,249.85097792148628 L 58.87103878259659,248.29839813709296 " fill="rgb(77,201,79)" stroke="rgb(77,201,79)" stroke-width="2" /><path d="M 65.16440883874894,227.11893036365547 " fill="rgb(73,49,33)" stroke="rgb(73,49,33)" stroke-width="2" /><path d="M +65.16440883874894,227.11893036365547 L 66.1876452088356,225.53484776020088 " fill="rgb(81,231,48)" stroke="rgb(81,231,48)" stroke-width="2" /><path d="M +66.1876452088356,225.53484776020088 L 67.94186388254165,224.0646911859516 " fill="rgb(0,87,57)" stroke="rgb(0,87,57)" stroke-width="2" /><path d="M 78.16615282297134,224.39370117187536 " fill="rgb(166,189,186)" stroke="rgb(166,189,186)" stroke-width="2" /><path d="M +78.16615282297134,224.39370117187536 L 78.10927319526672,223.60291061401404 " fill="rgb(160,1,105)" stroke="rgb(160,1,105)" stroke-width="2" /><path d="M +78.10927319526672,223.60291061401404 L 77.44088711738587,222.55315179824865 " fill="rgb(132,29,233)" stroke="rgb(132,29,233)" stroke-width="2" /><path d="M +77.44088711738587,222.55315179824865 L 76.81584725379945,220.03959989547766 " fill="rgb(94,33,172)" stroke="rgb(94,33,172)" stroke-width="2" /><path d="M +76.81584725379945,220.03959989547766 L 77.01939089298249,216.33907995224035 " fill="rgb(14,47,4)" stroke="rgb(14,47,4)" stroke-width="2" /><path d="M +77.01939089298249,216.33907995224035 L 78.54718039035798,215.09923133850134 " fill="rgb(191,100,170)" stroke="rgb(191,100,170)" stroke-width="2" /><path d="M +78.54718039035798,215.09923133850134 L 79.7076194047928,213.42950000762977 " fill="rgb(217,7,32)" stroke="rgb(217,7,32)" stroke-width="2" /><path d="M +79.7076194047928,213.42950000762977 L 81.99144718647004,213.71951167583504 " fill="rgb(113,63,117)" stroke="rgb(113,63,117)" stroke-width="2" /><path d="M +81.99144718647004,213.71951167583504 L 84.20124599933625,212.56253631114998 " fill="rgb(15,26,239)" stroke="rgb(15,26,239)" stroke-width="2" /><path d="M +84.20124599933625,212.56253631114998 L 84.93829843997956,211.57880752086677 " fill="rgb(111,41,102)" stroke="rgb(111,41,102)" stroke-width="2" /><path d="M +84.93829843997956,211.57880752086677 L 87.02400305271149,210.87001445293464 " fill="rgb(52,198,94)" stroke="rgb(52,198,94)" stroke-width="2" /><path d="M +87.02400305271149,210.87001445293464 L 92.24195158481598,200.3147806882862 " fill="rgb(174,113,124)" stroke="rgb(174,113,124)" stroke-width="2" /><path d="M +92.24195158481598,200.3147806882862 L 92.9980265378952,196.4720087766651 " fill="rgb(175,62,70)" stroke="rgb(175,62,70)" stroke-width="2" /><path d="M +92.9980265378952,196.4720087766651 L 92.54366710186004,195.2440552473072 " fill="rgb(67,210,131)" stroke="rgb(67,210,131)" stroke-width="2" /><path d="M +92.54366710186004,195.2440552473072 L 91.38730733394623,194.27399499416387 " fill="rgb(24,171,14)" stroke="rgb(24,171,14)" stroke-width="2" /><path d="M +91.38730733394623,194.27399499416387 L 89.38353955745697,193.3826304197315 " fill="rgb(186,230,187)" stroke="rgb(186,230,187)" stroke-width="2" /><path d="M +89.38353955745697,193.3826304197315 L 87.35257833003998,192.29792878627813 " fill="rgb(219,154,72)" stroke="rgb(219,154,72)" stroke-width="2" /><path d="M +87.35257833003998,192.29792878627813 L 87.6329588651657,191.2149739027027 " fill="rgb(178,113,97)" stroke="rgb(178,113,97)" stroke-width="2" /><path d="M +87.6329588651657,191.2149739027027 L 88.08101632595061,189.1068175077442 " fill="rgb(70,43,219)" stroke="rgb(70,43,219)" stroke-width="2" /><path d="M +88.08101632595061,189.1068175077442 L 83.68278863430022,182.93626163005865 " fill="rgb(77,23,218)" stroke="rgb(77,23,218)" stroke-width="2" /><path d="M 82.56196801662445,180.38486907482184 " fill="rgb(157,16,84)" stroke="rgb(157,16,84)" stroke-width="2" /><path d="M +82.56196801662445,180.38486907482184 L 81.72326180934905,177.68043830394782 " fill="rgb(22,232,94)" stroke="rgb(22,232,94)" stroke-width="2" /><path d="M +81.72326180934905,177.68043830394782 L 81.9584567785263,174.6800394773487 " fill="rgb(232,138,36)" stroke="rgb(232,138,36)" stroke-width="2" /><path d="M +81.9584567785263,174.6800394773487 L 81.65176272392272,171.94645621776618 " fill="rgb(213,110,153)" stroke="rgb(213,110,153)" stroke-width="2" /><path d="M +81.65176272392272,171.94645621776618 L 81.3382699728012,167.8084080457691 " fill="rgb(204,55,155)" stroke="rgb(204,55,155)" stroke-width="2" /><path d="M +81.3382699728012,167.8084080457691 L 81.96580827236174,164.98131644725837 " fill="rgb(101,196,224)" stroke="rgb(101,196,224)" stroke-width="2" /><path d="M +81.96580827236174,164.98131644725837 L 82.99465453624724,161.44060676097908 " fill="rgb(4,45,50)" stroke="rgb(4,45,50)" stroke-width="2" /><path d="M +82.99465453624724,161.44060676097908 L 84.48595597743987,158.44593989849128 " fill="rgb(103,157,55)" stroke="rgb(103,157,55)" stroke-width="2" /><path d="M +84.48595597743987,158.44593989849128 L 87.45846383571624,154.730270648003 " fill="rgb(61,186,167)" stroke="rgb(61,186,167)" stroke-width="2" /><path d="M +87.45846383571624,154.730270648003 L 89.51758096218109,150.97173793315926 " fill="rgb(46,31,78)" stroke="rgb(46,31,78)" stroke-width="2" /><path d="M +89.51758096218109,150.97173793315926 L 90.42065074443816,148.7692978620533 " fill="rgb(197,94,88)" stroke="rgb(197,94,88)" stroke-width="2" /><path d="M +90.42065074443816,148.7692978620533 L 90.62359962463378,146.7235167264942 " fill="rgb(77,84,115)" stroke="rgb(77,84,115)" stroke-width="2" /><path d="M +90.62359962463378,146.7235167264942 L 91.3468451499939,143.91302058696783 " fill="rgb(101,112,4)" stroke="rgb(101,112,4)" stroke-width="2" /><path d="M +91.3468451499939,143.91302058696783 L 90.52795391082763,141.257428812981 " fill="rgb(86,222,102)" stroke="rgb(86,222,102)" stroke-width="2" /><path d="M +90.52795391082763,141.257428812981 L 91.3246557712555,138.6745726346973 " fill="rgb(180,109,215)" stroke="rgb(180,109,215)" stroke-width="2" /><path d="M +91.3246557712555,138.6745726346973 L 90.72790913581848,138.6098939776424 " fill="rgb(111,188,189)" stroke="rgb(111,188,189)" stroke-width="2" /><path d="M +90.72790913581848,138.6098939776424 L 90.43713779449463,138.88688033819233 " fill="rgb(213,215,146)" stroke="rgb(213,215,146)" stroke-width="2" /><path d="M +90.43713779449463,138.88688033819233 L 90.92163128852845,140.1657738089565 " fill="rgb(76,120,53)" stroke="rgb(76,120,53)" stroke-width="2" /><path d="M +90.92163128852845,140.1657738089565 L 91.93967518806458,142.74638198614156 " fill="rgb(16,104,189)" stroke="rgb(16,104,189)" stroke-width="2" /><path d="M +91.93967518806458,142.74638198614156 L 92.30129327774048,143.6833039641384 " fill="rgb(9,211,65)" stroke="rgb(9,211,65)" stroke-width="2" /><path d="M +92.30129327774048,143.6833039641384 L 93.0939024925232,144.47746247053183 " fill="rgb(75,118,202)" stroke="rgb(75,118,202)" stroke-width="2" /><path d="M +93.0939024925232,144.47746247053183 L 93.64580764770508,145.62897547483482 " fill="rgb(228,71,38)" stroke="rgb(228,71,38)" stroke-width="2" /><path d="M +93.64580764770508,145.62897547483482 L 94.86124858856202,146.23475755453148 " fill="rgb(117,143,228)" stroke="rgb(117,143,228)" stroke-width="2" /><path d="M +94.86124858856202,146.23475755453148 L 96.23378067016603,147.0730044722561 " fill="rgb(37,67,38)" stroke="rgb(37,67,38)" stroke-width="2" /><path d="M +96.23378067016603,147.0730044722561 L 97.67113103866578,147.63559559583703 " fill="rgb(193,154,66)" stroke="rgb(193,154,66)" stroke-width="2" /><path d="M +97.67113103866578,147.63559559583703 L 98.9367235183716,147.52217605114024 " fill="rgb(18,77,13)" stroke="rgb(18,77,13)" stroke-width="2" /><path d="M +98.9367235183716,147.52217605114024 L 100.08736629486086,146.6149090528492 " fill="rgb(27,228,221)" stroke="rgb(27,228,221)" stroke-width="2" /><path d="M +100.08736629486086,146.6149090528492 L 101.35078878402712,144.98249118328135 " fill="rgb(204,123,55)" stroke="rgb(204,123,55)" stroke-width="2" /><path d="M +101.35078878402712,144.98249118328135 L 101.86906218528749,144.00450780391733 " fill="rgb(226,189,111)" stroke="rgb(226,189,111)" stroke-width="2" /><path d="M +101.86906218528749,144.00450780391733 L 103.17092356681825,143.1241561651234 " fill="rgb(20,112,134)" stroke="rgb(20,112,134)" stroke-width="2" /><path d="M +103.17092356681825,143.1241561651234 L 103.40515708923341,141.97554500103038 " fill="rgb(67,178,98)" stroke="rgb(67,178,98)" stroke-width="2" /><path d="M +103.40515708923341,141.97554500103038 L 103.39056621044875,140.39402310848277 " fill="rgb(125,236,29)" stroke="rgb(125,236,29)" stroke-width="2" /><path d="M +103.39056621044875,140.39402310848277 L 103.19924891442062,138.92853772640268 " fill="rgb(121,12,217)" stroke="rgb(121,12,217)" stroke-width="2" /><path d="M +103.19924891442062,138.92853772640268 L 103.68887055367233,137.65807473659555 " fill="rgb(44,33,5)" stroke="rgb(44,33,5)" stroke-width="2" /><path d="M +103.68887055367233,137.65807473659555 L 104.16941588371994,136.0898771047596 " fill="rgb(161,26,119)" stroke="rgb(161,26,119)" stroke-width="2" /><path d="M +104.16941588371994,136.0898771047596 L 105.25690396279099,134.5849496603016 " fill="rgb(5,39,72)" stroke="rgb(5,39,72)" stroke-width="2" /><path d="M +105.25690396279099,134.5849496603016 L 107.21173642128709,132.3219800710682 " fill="rgb(202,183,196)" stroke="rgb(202,183,196)" stroke-width="2" /><path d="M +107.21173642128709,132.3219800710682 L 108.33193800896409,129.96858117580453 " fill="rgb(39,118,135)" stroke="rgb(39,118,135)" stroke-width="2" /><path d="M +108.33193800896409,129.96858117580453 L 106.60134261101487,134.43367211818733 " fill="rgb(116,13,114)" stroke="rgb(116,13,114)" stroke-width="2" /><path d="M +106.60134261101487,134.43367211818733 L 104.13619387596849,138.3951822042469 " fill="rgb(19,212,132)" stroke="rgb(19,212,132)" stroke-width="2" /><path d="M +104.13619387596849,138.3951822042469 L 102.4142257973552,141.66798379421272 " fill="rgb(110,63,65)" stroke="rgb(110,63,65)" stroke-width="2" /><path d="M +102.4142257973552,141.66798379421272 L 101.57921231240037,143.431123709679 " fill="rgb(17,82,96)" stroke="rgb(17,82,96)" stroke-width="2" /><path d="M +101.57921231240037,143.431123709679 L 101.70680959671739,144.22227752208747 " fill="rgb(47,144,178)" stroke="rgb(47,144,178)" stroke-width="2" /><path d="M +101.70680959671739,144.22227752208747 L 102.27012117356065,144.0071583986286 " fill="rgb(208,166,99)" stroke="rgb(208,166,99)" stroke-width="2" /><path d="M +102.27012117356065,144.0071583986286 L 103.90795095413927,142.56836283206977 " fill="rgb(17,8,228)" stroke="rgb(17,8,228)" stroke-width="2" /><path d="M +103.90795095413927,142.56836283206977 L 104.82869174927477,141.36233589649237 " fill="rgb(229,207,165)" stroke="rgb(229,207,165)" stroke-width="2" /><path d="M +104.82869174927477,141.36233589649237 L 106.5652451321483,139.16046745777166 " fill="rgb(20,97,70)" stroke="rgb(20,97,70)" stroke-width="2" /><path d="M +106.5652451321483,139.16046745777166 L 107.45152900666002,137.37620365619696 " fill="rgb(150,78,142)" stroke="rgb(150,78,142)" stroke-width="2" /><path d="M +107.45152900666002,137.37620365619696 L 107.8437259241939,135.86804306507148 " fill="rgb(162,55,230)" stroke="rgb(162,55,230)" stroke-width="2" /><path d="M +107.8437259241939,135.86804306507148 L 108.14092827290301,133.74890778064764 " fill="rgb(144,7,93)" stroke="rgb(144,7,93)" stroke-width="2" /><path d="M +108.14092827290301,133.74890778064764 L 108.82521810978656,131.716510510445 " fill="rgb(131,48,72)" stroke="rgb(131,48,72)" stroke-width="2" /><path d="M +108.82521810978656,131.716510510445 L 109.98626594990498,128.76909191608465 " fill="rgb(149,194,168)" stroke="rgb(149,194,168)" stroke-width="2" /><path d="M +109.98626594990498,128.76909191608465 L 110.81768970936542,126.49402401447333 " fill="rgb(61,70,38)" stroke="rgb(61,70,38)" stroke-width="2" /><path d="M +110.81768970936542,126.49402401447333 L 110.98763950318104,126.11564939022101 " fill="rgb(87,84,42)" stroke="rgb(87,84,42)" stroke-width="2" /><path d="M +110.98763950318104,126.11564939022101 L 110.70956843346363,125.37412030696906 " fill="rgb(132,10,66)" stroke="rgb(132,10,66)" stroke-width="2" /><path d="M +110.70956843346363,125.37412030696906 L 110.72476595342165,124.47121198177375 " fill="rgb(91,106,22)" stroke="rgb(91,106,22)" stroke-width="2" /><path d="M +110.72476595342165,124.47121198177375 L 111.22458485066896,124.06182587146796 " fill="rgb(75,120,189)" stroke="rgb(75,120,189)" stroke-width="2" /><path d="M +111.22458485066896,124.06182587146796 L 111.3514784187079,123.06773407459296 " fill="rgb(0,217,77)" stroke="rgb(0,217,77)" stroke-width="2" /><path d="M +111.3514784187079,123.06773407459296 L 112.16375382840639,122.09711649417915 " fill="rgb(232,57,67)" stroke="rgb(232,57,67)" stroke-width="2" /><path d="M +112.16375382840639,122.09711649417915 L 114.41581986844545,121.41267783641852 " fill="rgb(207,80,13)" stroke="rgb(207,80,13)" stroke-width="2" /><path d="M +114.41581986844545,121.41267783641852 L 115.81304486691957,119.24880836010017 " fill="rgb(201,30,179)" stroke="rgb(201,30,179)" stroke-width="2" /><path d="M +115.81304486691957,119.24880836010017 L 117.64743035733704,117.81879231929817 " fill="rgb(22,173,184)" stroke="rgb(22,173,184)" stroke-width="2" /><path d="M +117.64743035733704,117.81879231929817 L 119.88098805844788,114.92565686702766 " fill="rgb(3,138,29)" stroke="rgb(3,138,29)" stroke-width="2" /><path d="M +119.88098805844788,114.92565686702766 L 122.07830632627015,111.49683225154914 " fill="rgb(163,200,112)" stroke="rgb(163,200,112)" stroke-width="2" /><path d="M +122.07830632627015,111.49683225154914 L 123.58600858151918,99.44552457332648 " fill="rgb(146,200,193)" stroke="rgb(146,200,193)" stroke-width="2" /><path d="M +123.58600858151918,99.44552457332648 L 123.9121973842383,99.89364392757453 " fill="rgb(62,89,115)" stroke="rgb(62,89,115)" stroke-width="2" /><path d="M +123.9121973842383,99.89364392757453 L 125.10472916066652,101.88566625118293 " fill="rgb(73,228,147)" stroke="rgb(73,228,147)" stroke-width="2" /><path d="M +125.10472916066652,101.88566625118293 L 126.44640472829347,103.27389905452765 " fill="rgb(22,131,195)" stroke="rgb(22,131,195)" stroke-width="2" /><path d="M +126.44640472829347,103.27389905452765 L 127.2752706378699,104.52683103084601 " fill="rgb(18,25,106)" stroke="rgb(18,25,106)" stroke-width="2" /><path d="M +127.2752706378699,104.52683103084601 L 129.0510902255774,105.38844439983404 " fill="rgb(205,157,39)" stroke="rgb(205,157,39)" stroke-width="2" /><path d="M +129.0510902255774,105.38844439983404 L 130.74850481450562,105.30966255664862 " fill="rgb(77,221,190)" stroke="rgb(77,221,190)" stroke-width="2" /><path d="M +130.74850481450562,105.30966255664862 L 131.37835277020935,104.40216801166571 " fill="rgb(81,175,151)" stroke="rgb(81,175,151)" stroke-width="2" /><path d="M 127.07600215375427,90.19942448139227 " fill="rgb(238,64,210)" stroke="rgb(238,64,210)" stroke-width="2" /><path d="M +127.07600215375427,90.19942448139227 L 127.1581682235003,89.85239255428351 " fill="rgb(222,180,236)" stroke="rgb(222,180,236)" stroke-width="2" /><path d="M +127.1581682235003,89.85239255428351 L 127.73887291252618,89.87725540399589 " fill="rgb(75,197,71)" stroke="rgb(75,197,71)" stroke-width="2" /><path d="M +127.73887291252618,89.87725540399589 L 129.46218071281913,90.54524961710014 " fill="rgb(76,170,152)" stroke="rgb(76,170,152)" stroke-width="2" /><path d="M +129.46218071281913,90.54524961710014 L 130.2418847590685,89.49534012079276 " fill="rgb(28,58,107)" stroke="rgb(28,58,107)" stroke-width="2" /><path d="M +130.2418847590685,89.49534012079276 L 130.95884809792045,87.76870113611258 " fill="rgb(174,216,157)" stroke="rgb(174,216,157)" stroke-width="2" /><path d="M +130.95884809792045,87.76870113611258 L 131.6605059653521,87.28553220033683 " fill="rgb(77,214,129)" stroke="rgb(77,214,129)" stroke-width="2" /><path d="M +131.6605059653521,87.28553220033683 L 131.7596733182669,85.96189633607902 " fill="rgb(211,78,116)" stroke="rgb(211,78,116)" stroke-width="2" /><path d="M +131.7596733182669,85.96189633607902 L 131.12978411614898,86.00328767895736 " fill="rgb(171,229,135)" stroke="rgb(171,229,135)" stroke-width="2" /><path d="M +131.12978411614898,86.00328767895736 L 130.7857493489981,86.37776637673416 " fill="rgb(25,12,176)" stroke="rgb(25,12,176)" stroke-width="2" /><path d="M +130.7857493489981,86.37776637673416 L 131.7642878621817,87.11853333115616 " fill="rgb(157,193,199)" stroke="rgb(157,193,199)" stroke-width="2" /><path d="M +131.7642878621817,87.11853333115616 L 134.95636435449128,88.10269270539322 " fill="rgb(202,223,157)" stroke="rgb(202,223,157)" stroke-width="2" /><path d="M +134.95636435449128,88.10269270539322 L 137.76288672387605,88.36150653958359 " fill="rgb(63,40,143)" stroke="rgb(63,40,143)" stroke-width="2" /><path d="M +137.76288672387605,88.36150653958359 L 140.05284205377106,88.11023858189621 " fill="rgb(168,161,115)" stroke="rgb(168,161,115)" stroke-width="2" /><path d="M +140.05284205377106,88.11023858189621 L 141.58309088647368,86.70671933293382 " fill="rgb(10,225,216)" stroke="rgb(10,225,216)" stroke-width="2" /><path d="M +141.58309088647368,86.70671933293382 L 142.53993178308014,85.06732438206711 " fill="rgb(148,41,36)" stroke="rgb(148,41,36)" stroke-width="2" /><path d="M +142.53993178308014,85.06732438206711 L 144.12504740655424,82.29570172429123 " fill="rgb(131,187,62)" stroke="rgb(131,187,62)" stroke-width="2" /><path d="M +144.12504740655424,82.29570172429123 L 145.23001528680328,79.75390675663986 " fill="rgb(151,190,27)" stroke="rgb(151,190,27)" stroke-width="2" /><path d="M +145.23001528680328,79.75390675663986 L 146.9371893972159,75.24662373662034 " fill="rgb(224,221,125)" stroke="rgb(224,221,125)" stroke-width="2" /><path d="M +146.9371893972159,75.24662373662034 L 148.12553015649323,71.9850381195549 " fill="rgb(225,204,102)" stroke="rgb(225,204,102)" stroke-width="2" /><path d="M +148.12553015649323,71.9850381195549 L 147.58868375718598,73.11380322575607 " fill="rgb(202,91,21)" stroke="rgb(202,91,21)" stroke-width="2" /><path d="M +147.58868375718598,73.11380322575607 L 146.57605539262298,74.34346230626144 " fill="rgb(38,5,113)" stroke="rgb(38,5,113)" stroke-width="2" /><path d="M +146.57605539262298,74.34346230626144 L 147.48236137330534,75.85844653248824 " fill="rgb(68,152,2)" stroke="rgb(68,152,2)" stroke-width="2" /><path d="M +147.48236137330534,75.85844653248824 L 147.97087350785733,77.71560099720992 " fill="rgb(225,164,173)" stroke="rgb(225,164,173)" stroke-width="2" /><path d="M +147.97087350785733,77.71560099720992 L 148.66585327088833,80.14876464009322 " fill="rgb(61,75,99)" stroke="rgb(61,75,99)" stroke-width="2" /><path d="M 153.69213272035122,86.55549071431197 " fill="rgb(34,86,15)" stroke="rgb(34,86,15)" stroke-width="2" /><path d="M +153.69213272035122,86.55549071431197 L 154.30466953217984,89.22233069539108 " fill="rgb(198,58,221)" stroke="rgb(198,58,221)" stroke-width="2" /><path d="M +154.30466953217984,89.22233069539108 L 154.47146504819395,92.03457415699997 " fill="rgb(48,60,144)" stroke="rgb(48,60,144)" stroke-width="2" /><path d="M +154.47146504819395,92.03457415699997 L 153.81221402585507,92.8994779884819 " fill="rgb(178,112,170)" stroke="rgb(178,112,170)" stroke-width="2" /><path d="M +153.81221402585507,92.8994779884819 L 152.68048451840878,93.97186968922654 " fill="rgb(102,73,188)" stroke="rgb(102,73,188)" stroke-width="2" /><path d="M +152.68048451840878,93.97186968922654 L 149.94104455411434,100.69324648976365 " fill="rgb(222,0,157)" stroke="rgb(222,0,157)" stroke-width="2" /><path d="M +149.94104455411434,100.69324648976365 L 149.10420945584775,122.36418460011521 " fill="rgb(75,219,102)" stroke="rgb(75,219,102)" stroke-width="2" /><path d="M +149.10420945584775,122.36418460011521 L 147.59121507108213,129.13446200490037 " fill="rgb(167,192,53)" stroke="rgb(167,192,53)" stroke-width="2" /><path d="M +147.59121507108213,129.13446200490037 L 149.41095460355282,129.26633976101914 " fill="rgb(215,233,183)" stroke="rgb(215,233,183)" stroke-width="2" /><path d="M +149.41095460355282,129.26633976101914 L 150.84676984250547,128.38576610684433 " fill="rgb(116,181,191)" stroke="rgb(116,181,191)" stroke-width="2" /><path d="M +150.84676984250547,128.38576610684433 L 152.02834704816343,126.96747902035752 " fill="rgb(119,189,102)" stroke="rgb(119,189,102)" stroke-width="2" /><path d="M +152.02834704816343,126.96747902035752 L 154.0570389121771,124.78128841519394 " fill="rgb(30,46,117)" stroke="rgb(30,46,117)" stroke-width="2" /><path d="M +154.0570389121771,124.78128841519394 L 155.83640349805356,122.01603744626084 " fill="rgb(92,38,127)" stroke="rgb(92,38,127)" stroke-width="2" /><path d="M +155.83640349805356,122.01603744626084 L 157.9506527274847,121.43692453503647 " fill="rgb(110,145,173)" stroke="rgb(110,145,173)" stroke-width="2" /><path d="M +157.9506527274847,121.43692453503647 L 159.5315223067999,120.26516769528428 " fill="rgb(62,232,66)" stroke="rgb(62,232,66)" stroke-width="2" /><path d="M +159.5315223067999,120.26516769528428 L 160.6025801986456,118.95098455548325 " fill="rgb(49,32,173)" stroke="rgb(49,32,173)" stroke-width="2" /><path d="M +160.6025801986456,118.95098455548325 L 161.53082469403745,118.0183367550377 " fill="rgb(144,111,199)" stroke="rgb(144,111,199)" stroke-width="2" /><path d="M +161.53082469403745,118.0183367550377 L 163.3409231513739,116.66120975613633 " fill="rgb(182,155,39)" stroke="rgb(182,155,39)" stroke-width="2" /><path d="M +163.3409231513739,116.66120975613633 L 164.92113583981993,114.96982181668321 " fill="rgb(202,49,77)" stroke="rgb(202,49,77)" stroke-width="2" /><path d="M +164.92113583981993,114.96982181668321 L 165.91903212964536,115.20347610116045 " fill="rgb(30,170,113)" stroke="rgb(30,170,113)" stroke-width="2" /><path d="M +165.91903212964536,115.20347610116045 L 166.79167846143247,115.46223629117051 " fill="rgb(185,74,157)" stroke="rgb(185,74,157)" stroke-width="2" /><path d="M +166.79167846143247,115.46223629117051 L 167.669194445014,114.98208144307176 " fill="rgb(20,110,236)" stroke="rgb(20,110,236)" stroke-width="2" /><path d="M +167.669194445014,114.98208144307176 L 168.85032409131526,114.51402195096055 " fill="rgb(178,16,233)" stroke="rgb(178,16,233)" stroke-width="2" /><path d="M +168.85032409131526,114.51402195096055 L 169.4540240138769,113.35289676785509 " fill="rgb(58,129,91)" stroke="rgb(58,129,91)" stroke-width="2" /><path d="M +169.4540240138769,113.35289676785509 L 170.59572237432002,112.25545375943223 " fill="rgb(191,176,103)" stroke="rgb(191,176,103)" stroke-width="2" /><path d="M +170.59572237432002,112.25545375943223 L 171.99769943654536,110.18043430447618 " fill="rgb(81,47,83)" stroke="rgb(81,47,83)" stroke-width="2" /><path d="M +171.99769943654536,110.18043430447618 L 172.98122890889644,109.68127325177232 " fill="rgb(182,72,94)" stroke="rgb(182,72,94)" stroke-width="2" /><path d="M +172.98122890889644,109.68127325177232 L 173.93687828481197,108.01886671185534 " fill="rgb(46,195,156)" stroke="rgb(46,195,156)" stroke-width="2" /><path d="M +173.93687828481197,108.01886671185534 L 174.17510379254819,107.61138542294543 " fill="rgb(38,72,104)" stroke="rgb(38,72,104)" stroke-width="2" /><path d="M +174.17510379254819,107.61138542294543 L 173.44873031079769,106.53831489682238 " fill="rgb(141,122,6)" stroke="rgb(141,122,6)" stroke-width="2" /><path d="M +173.44873031079769,106.53831489682238 L 172.6382054656744,105.49153545498889 " fill="rgb(198,199,183)" stroke="rgb(198,199,183)" stroke-width="2" /><path d="M +172.6382054656744,105.49153545498889 L 171.09148257672786,103.86647022366564 " fill="rgb(83,214,160)" stroke="rgb(83,214,160)" stroke-width="2" /><path d="M +171.09148257672786,103.86647022366564 L 168.46827205121517,103.67629595398944 " fill="rgb(72,58,16)" stroke="rgb(72,58,16)" stroke-width="2" /><path d="M +168.46827205121517,103.67629595398944 L 166.0385086387396,103.41995974183124 " fill="rgb(61,232,75)" stroke="rgb(61,232,75)" stroke-width="2" /><path d="M +166.0385086387396,103.41995974183124 L 161.87184146344663,102.65602779984515 " fill="rgb(50,119,20)" stroke="rgb(50,119,20)" stroke-width="2" /><path d="M +161.87184146344663,102.65602779984515 L 158.35151751935484,102.77752103209536 " fill="rgb(47,135,107)" stroke="rgb(47,135,107)" stroke-width="2" /><path d="M +158.35151751935484,102.77752103209536 L 157.2634832710028,102.93428066372913 " fill="rgb(217,164,26)" stroke="rgb(217,164,26)" stroke-width="2" /><path d="M +157.2634832710028,102.93428066372913 L 155.9735328048468,102.85749012827914 " fill="rgb(238,64,34)" stroke="rgb(238,64,34)" stroke-width="2" /><path d="M +155.9735328048468,102.85749012827914 L 155.55057147443299,103.57622177004855 " fill="rgb(173,99,119)" stroke="rgb(173,99,119)" stroke-width="2" /><path d="M +155.55057147443299,103.57622177004855 L 155.46110323369507,104.50902072787325 " fill="rgb(220,201,140)" stroke="rgb(220,201,140)" stroke-width="2" /><path d="M +155.46110323369507,104.50902072787325 L 155.89706166684633,105.9469910800461 " fill="rgb(77,233,0)" stroke="rgb(77,233,0)" stroke-width="2" /><path d="M +155.89706166684633,105.9469910800461 L 156.52311457097537,108.4701642215256 " fill="rgb(80,156,209)" stroke="rgb(80,156,209)" stroke-width="2" /><path d="M +156.52311457097537,108.4701642215256 L 157.75281036794192,113.01986896395724 " fill="rgb(92,214,152)" stroke="rgb(92,214,152)" stroke-width="2" /><path d="M +157.75281036794192,113.01986896395724 L 158.31112821996217,116.19231387972872 " fill="rgb(217,124,222)" stroke="rgb(217,124,222)" stroke-width="2" /><path d="M +158.31112821996217,116.19231387972872 L 158.51596282422548,119.66097576022187 " fill="rgb(59,101,75)" stroke="rgb(59,101,75)" stroke-width="2" /><path d="M +158.51596282422548,119.66097576022187 L 159.16509040296083,122.69152614474336 " fill="rgb(160,11,65)" stroke="rgb(160,11,65)" stroke-width="2" /><path d="M +159.16509040296083,122.69152614474336 L 159.2999962896109,125.9581628024582 " fill="rgb(179,12,87)" stroke="rgb(179,12,87)" stroke-width="2" /><path d="M +159.2999962896109,125.9581628024582 L 159.17547889649873,129.50807964205782 " fill="rgb(238,5,43)" stroke="rgb(238,5,43)" stroke-width="2" /><path d="M +159.17547889649873,129.50807964205782 L 158.00639539659028,132.29828273654024 " fill="rgb(172,121,187)" stroke="rgb(172,121,187)" stroke-width="2" /><path d="M +158.00639539659028,132.29828273654024 L 157.47687536180024,135.4752915561203 " fill="rgb(157,87,168)" stroke="rgb(157,87,168)" stroke-width="2" /><path d="M +157.47687536180024,135.4752915561203 L 156.4460978120566,138.0425923526291 " fill="rgb(68,99,123)" stroke="rgb(68,99,123)" stroke-width="2" /><path d="M +156.4460978120566,138.0425923526291 L 156.65259614884857,139.2891514956955 " fill="rgb(160,75,161)" stroke="rgb(160,75,161)" stroke-width="2" /><path d="M +156.65259614884857,139.2891514956955 L 157.0569292634726,141.4749726474289 " fill="rgb(83,9,92)" stroke="rgb(83,9,92)" stroke-width="2" /><path d="M 157.27353187501436,145.3955983340744 " fill="rgb(33,13,34)" stroke="rgb(33,13,34)" stroke-width="2" /><path d="M +157.27353187501436,145.3955983340744 L 157.31812669336801,146.45014278292695 " fill="rgb(88,235,81)" stroke="rgb(88,235,81)" stroke-width="2" /><path d="M +157.31812669336801,146.45014278292695 L 157.54896277487285,147.87825300097504 " fill="rgb(207,170,57)" stroke="rgb(207,170,57)" stroke-width="2" /><path d="M +157.54896277487285,147.87825300097504 L 158.13702010214337,150.15344888567964 " fill="rgb(86,51,102)" stroke="rgb(86,51,102)" stroke-width="2" /><path d="M +158.13702010214337,150.15344888567964 L 159.520704355836,152.41149446368257 " fill="rgb(38,190,154)" stroke="rgb(38,190,154)" stroke-width="2" /><path d="M +159.520704355836,152.41149446368257 L 160.50400990545756,154.0308063685898 " fill="rgb(176,48,64)" stroke="rgb(176,48,64)" stroke-width="2" /><path d="M +160.50400990545756,154.0308063685898 L 161.44658488333232,155.7123399913315 " fill="rgb(160,195,230)" stroke="rgb(160,195,230)" stroke-width="2" /><path d="M +161.44658488333232,155.7123399913315 L 161.78339194357403,158.21403257250827 " fill="rgb(224,228,118)" stroke="rgb(224,228,118)" stroke-width="2" /><path d="M +161.78339194357403,158.21403257250827 L 161.58580301105985,159.8145586192612 " fill="rgb(106,105,91)" stroke="rgb(106,105,91)" stroke-width="2" /><path d="M +161.58580301105985,159.8145586192612 L 161.21654055416593,162.12042219042817 " fill="rgb(22,14,182)" stroke="rgb(22,14,182)" stroke-width="2" /><path d="M +161.21654055416593,162.12042219042817 L 161.3525599747897,164.91973974108734 " fill="rgb(238,102,192)" stroke="rgb(238,102,192)" stroke-width="2" /><path d="M +161.3525599747897,164.91973974108734 L 162.01554444134243,166.958933848143 " fill="rgb(88,155,218)" stroke="rgb(88,155,218)" stroke-width="2" /><path d="M +162.01554444134243,166.958933848143 L 163.3890587121249,168.926454752684 " fill="rgb(54,225,132)" stroke="rgb(54,225,132)" stroke-width="2" /><path d="M +163.3890587121249,168.926454752684 L 162.04065478146083,169.4451574504379 " fill="rgb(84,105,222)" stroke="rgb(84,105,222)" stroke-width="2" /><path d="M +162.04065478146083,169.4451574504379 L 159.9821371346713,170.74587098956144 " fill="rgb(198,159,196)" stroke="rgb(198,159,196)" stroke-width="2" /><path d="M +159.9821371346713,170.74587098956144 L 159.91442756950863,173.17798692584074 " fill="rgb(232,68,41)" stroke="rgb(232,68,41)" stroke-width="2" /><path d="M +159.91442756950863,173.17798692584074 L 159.17283506691464,176.315077799559 " fill="rgb(126,51,149)" stroke="rgb(126,51,149)" stroke-width="2" /><path d="M +159.17283506691464,176.315077799559 L 157.49196291267882,178.9621870219711 " fill="rgb(224,128,106)" stroke="rgb(224,128,106)" stroke-width="2" /><path d="M 158.07619719803344,180.46691171526942 " fill="rgb(6,180,183)" stroke="rgb(6,180,183)" stroke-width="2" /><path d="M +158.07619719803344,180.46691171526942 L 158.66033330261718,182.27268983721765 " fill="rgb(199,158,228)" stroke="rgb(199,158,228)" stroke-width="2" /><path d="M +158.66033330261718,182.27268983721765 L 158.83241126835355,184.96865426898034 " fill="rgb(4,28,227)" stroke="rgb(4,28,227)" stroke-width="2" /><path d="M +158.83241126835355,184.96865426898034 L 159.31572559177886,188.00225049853356 " fill="rgb(68,111,122)" stroke="rgb(68,111,122)" stroke-width="2" /><path d="M +159.31572559177886,188.00225049853356 L 158.69666488468658,191.49938833117517 " fill="rgb(107,236,229)" stroke="rgb(107,236,229)" stroke-width="2" /><path d="M +158.69666488468658,191.49938833117517 L 157.84375617802155,194.09103872180017 " fill="rgb(3,118,132)" stroke="rgb(3,118,132)" stroke-width="2" /><path d="M +157.84375617802155,194.09103872180017 L 157.78627770245086,195.51528283953698 " fill="rgb(203,141,100)" stroke="rgb(203,141,100)" stroke-width="2" /><path d="M +157.78627770245086,195.51528283953698 L 158.24703758060943,197.39934732317957 " fill="rgb(71,126,27)" stroke="rgb(71,126,27)" stroke-width="2" /><path d="M +158.24703758060943,197.39934732317957 L 158.55297286808502,198.09533554911647 " fill="rgb(221,72,127)" stroke="rgb(221,72,127)" stroke-width="2" /><path d="M +158.55297286808502,198.09533554911647 L 158.93229787647735,197.88213207125696 " fill="rgb(134,40,155)" stroke="rgb(134,40,155)" stroke-width="2" /><path d="M 172.22206533253203,203.85224162936242 " fill="rgb(225,7,113)" stroke="rgb(225,7,113)" stroke-width="2" /><path d="M +172.22206533253203,203.85224162936242 L 171.9586834937335,203.61160728335412 " fill="rgb(157,215,234)" stroke="rgb(157,215,234)" stroke-width="2" /><path d="M +171.9586834937335,203.61160728335412 L 171.97812881469736,204.82313424944908 " fill="rgb(165,29,12)" stroke="rgb(165,29,12)" stroke-width="2" /><path d="M 241.9740638732911,142.15338327288657 " fill="rgb(239,111,67)" stroke="rgb(239,111,67)" stroke-width="2" /><path d="M +241.9740638732911,142.15338327288657 L 242.13689892292032,141.8737454354766 " fill="rgb(225,201,63)" stroke="rgb(225,201,63)" stroke-width="2" /><path d="M +242.13689892292032,141.8737454354766 L 242.63950521945964,143.7214981973174 " fill="rgb(24,180,70)" stroke="rgb(24,180,70)" stroke-width="2" /><path d="M +242.63950521945964,143.7214981973174 L 243.43221213817606,145.1853195130828 " fill="rgb(18,14,14)" stroke="rgb(18,14,14)" stroke-width="2" /><path d="M +243.43221213817606,145.1853195130828 L 245.05376784801493,147.59575347304371 " fill="rgb(106,87,125)" stroke="rgb(106,87,125)" stroke-width="2" /><path d="M +245.05376784801493,147.59575347304371 L 246.40786101818094,149.75360679030445 " fill="rgb(219,174,194)" stroke="rgb(219,174,194)" stroke-width="2" /><path d="M +246.40786101818094,149.75360679030445 L 247.65466735363015,150.87603768706347 " fill="rgb(121,1,74)" stroke="rgb(121,1,74)" stroke-width="2" /><path d="M +247.65466735363015,150.87603768706347 L 249.56237990856178,151.97498025298145 " fill="rgb(79,136,86)" stroke="rgb(79,136,86)" stroke-width="2" /><path d="M +249.56237990856178,151.97498025298145 L 251.047752070427,152.83628949522998 " fill="rgb(138,71,107)" stroke="rgb(138,71,107)" stroke-width="2" /><path d="M +251.047752070427,152.83628949522998 L 252.03053977489478,153.7162058770659 " fill="rgb(227,35,36)" stroke="rgb(227,35,36)" stroke-width="2" /><path d="M +252.03053977489478,153.7162058770659 L 253.0379737615586,155.64479398131394 " fill="rgb(20,196,171)" stroke="rgb(20,196,171)" stroke-width="2" /><path d="M +253.0379737615586,155.64479398131394 L 253.31435132026678,157.75267476439498 " fill="rgb(60,154,131)" stroke="rgb(60,154,131)" stroke-width="2" /><path d="M +253.31435132026678,157.75267476439498 L 253.5994738578797,160.29299306273484 " fill="rgb(151,197,39)" stroke="rgb(151,197,39)" stroke-width="2" /><path d="M +253.5994738578797,160.29299306273484 L 253.50102507472045,164.09635800719283 " fill="rgb(110,110,41)" stroke="rgb(110,110,41)" stroke-width="2" /><path d="M +253.50102507472045,164.09635800719283 L 253.1596438825131,166.22666348814985 " fill="rgb(112,66,28)" stroke="rgb(112,66,28)" stroke-width="2" /><path d="M +253.1596438825131,166.22666348814985 L 253.1107875347138,168.72156247496625 " fill="rgb(220,186,201)" stroke="rgb(220,186,201)" stroke-width="2" /><path d="M +253.1107875347138,168.72156247496625 L 253.27522945404058,172.71750821471235 " fill="rgb(99,179,152)" stroke="rgb(99,179,152)" stroke-width="2" /><path d="M +253.27522945404058,172.71750821471235 L 253.6714590787888,175.93481969237348 " fill="rgb(238,174,214)" stroke="rgb(238,174,214)" stroke-width="2" /><path d="M +253.6714590787888,175.93481969237348 L 254.79233233928687,177.19080094695113 " fill="rgb(68,231,148)" stroke="rgb(68,231,148)" stroke-width="2" /><path d="M +254.79233233928687,177.19080094695113 L 255.7612184286118,177.69512233138107 " fill="rgb(97,165,220)" stroke="rgb(97,165,220)" stroke-width="2" /><path d="M +255.7612184286118,177.69512233138107 L 257.0214589834214,177.62167766690277 " fill="rgb(30,21,198)" stroke="rgb(30,21,198)" stroke-width="2" /><path d="M +257.0214589834214,177.62167766690277 L 260.3243463277817,176.66291511654876 " fill="rgb(67,117,210)" stroke="rgb(67,117,210)" stroke-width="2" /><path d="M +260.3243463277817,176.66291511654876 L 261.1876475095749,175.40491035580658 " fill="rgb(145,41,135)" stroke="rgb(145,41,135)" stroke-width="2" /><path d="M +261.1876475095749,175.40491035580658 L 261.11522193551065,173.28230007290864 " fill="rgb(53,210,180)" stroke="rgb(53,210,180)" stroke-width="2" /><path d="M +261.11522193551065,173.28230007290864 L 258.9956082880497,170.40696018338227 " fill="rgb(124,167,167)" stroke="rgb(124,167,167)" stroke-width="2" /><path d="M +258.9956082880497,170.40696018338227 L 257.2946668207646,167.40273349881195 " fill="rgb(175,134,201)" stroke="rgb(175,134,201)" stroke-width="2" /><path d="M +257.2946668207646,167.40273349881195 L 252.73629508614545,159.04636448025727 " fill="rgb(159,90,49)" stroke="rgb(159,90,49)" stroke-width="2" /><path d="M +252.73629508614545,159.04636448025727 L 252.5397740900517,157.30336311459564 " fill="rgb(199,10,51)" stroke="rgb(199,10,51)" stroke-width="2" /><path d="M +252.5397740900517,157.30336311459564 L 252.4107329189778,153.73389671444914 " fill="rgb(116,203,105)" stroke="rgb(116,203,105)" stroke-width="2" /><path d="M +252.4107329189778,153.73389671444914 L 252.06914787888533,151.34557045102142 " fill="rgb(137,161,235)" stroke="rgb(137,161,235)" stroke-width="2" /><path d="M +252.06914787888533,151.34557045102142 L 253.30011349320418,149.45354583859466 " fill="rgb(11,35,126)" stroke="rgb(11,35,126)" stroke-width="2" /><path d="M +253.30011349320418,149.45354583859466 L 254.76043778061873,147.4482149899008 " fill="rgb(61,96,139)" stroke="rgb(61,96,139)" stroke-width="2" /><path d="M +254.76043778061873,147.4482149899008 L 255.9610522329808,145.9787111103537 " fill="rgb(151,141,31)" stroke="rgb(151,141,31)" stroke-width="2" /><path d="M +255.9610522329808,145.9787111103537 L 257.9881575644017,142.85552042126676 " fill="rgb(0,79,226)" stroke="rgb(0,79,226)" stroke-width="2" /><path d="M +257.9881575644017,142.85552042126676 L 260.5716376364232,139.52121217846891 " fill="rgb(50,35,5)" stroke="rgb(50,35,5)" stroke-width="2" /><path d="M +260.5716376364232,139.52121217846891 L 262.7174050390721,137.2219966709616 " fill="rgb(37,173,39)" stroke="rgb(37,173,39)" stroke-width="2" /><path d="M +262.7174050390721,137.2219966709616 L 265.0503266394139,135.74429681897186 " fill="rgb(36,204,36)" stroke="rgb(36,204,36)" stroke-width="2" /><path d="M +265.0503266394139,135.74429681897186 L 267.43785448670394,133.1589107334616 " fill="rgb(208,194,83)" stroke="rgb(208,194,83)" stroke-width="2" /><path d="M +267.43785448670394,133.1589107334616 L 268.9594724714757,132.5387642681601 " fill="rgb(147,140,55)" stroke="rgb(147,140,55)" stroke-width="2" /><path d="M +268.9594724714757,132.5387642681601 L 271.78959923386583,131.0563282787802 " fill="rgb(47,105,5)" stroke="rgb(47,105,5)" stroke-width="2" /><path d="M +271.78959923386583,131.0563282787802 L 272.2809068739415,130.73214848637602 " fill="rgb(51,6,229)" stroke="rgb(51,6,229)" stroke-width="2" /><path d="M +272.2809068739415,130.73214848637602 L 272.8934482634068,129.49242089390776 " fill="rgb(137,4,166)" stroke="rgb(137,4,166)" stroke-width="2" /><path d="M +272.8934482634068,129.49242089390776 L 275.2739284574986,127.089414149523 " fill="rgb(78,9,114)" stroke="rgb(78,9,114)" stroke-width="2" /><path d="M +275.2739284574986,127.089414149523 L 277.2562780439854,123.5853759109976 " fill="rgb(101,199,35)" stroke="rgb(101,199,35)" stroke-width="2" /><path d="M +277.2562780439854,123.5853759109976 L 277.4594579041004,123.03613026738188 " fill="rgb(32,185,171)" stroke="rgb(32,185,171)" stroke-width="2" /><path d="M +277.4594579041004,123.03613026738188 L 277.3541894495487,121.65280097126981 " fill="rgb(214,34,82)" stroke="rgb(214,34,82)" stroke-width="2" /><path d="M +277.3541894495487,121.65280097126981 L 278.37466884255406,121.19709327816983 " fill="rgb(135,100,152)" stroke="rgb(135,100,152)" stroke-width="2" /><path d="M +278.37466884255406,121.19709327816983 L 279.6590322077274,118.38230560421964 " fill="rgb(220,221,116)" stroke="rgb(220,221,116)" stroke-width="2" /><path d="M +279.6590322077274,118.38230560421964 L 281.4229459345341,116.78517597317716 " fill="rgb(170,189,122)" stroke="rgb(170,189,122)" stroke-width="2" /><path d="M +281.4229459345341,116.78517597317716 L 281.9504934847355,114.23551967740079 " fill="rgb(186,192,109)" stroke="rgb(186,192,109)" stroke-width="2" /><path d="M +281.9504934847355,114.23551967740079 L 281.7517645895481,112.38771618008633 " fill="rgb(209,18,130)" stroke="rgb(209,18,130)" stroke-width="2" /><path d="M +281.7517645895481,112.38771618008633 L 281.84788660407065,109.22410495877286 " fill="rgb(147,188,137)" stroke="rgb(147,188,137)" stroke-width="2" /><path d="M +281.84788660407065,109.22410495877286 L 283.2846154630184,105.8990668118002 " fill="rgb(170,186,146)" stroke="rgb(170,186,146)" stroke-width="2" /><path d="M +283.2846154630184,105.8990668118002 L 283.66737214922904,102.7838309109213 " fill="rgb(112,206,202)" stroke="rgb(112,206,202)" stroke-width="2" /><path d="M +283.66737214922904,102.7838309109213 L 284.2673445880413,99.53165310025236 " fill="rgb(64,100,208)" stroke="rgb(64,100,208)" stroke-width="2" /><path d="M +284.2673445880413,99.53165310025236 L 285.73878633379934,98.36948450207731 " fill="rgb(172,182,145)" stroke="rgb(172,182,145)" stroke-width="2" /><path d="M +285.73878633379934,98.36948450207731 L 286.9318748652935,96.55758321881315 " fill="rgb(228,48,91)" stroke="rgb(228,48,91)" stroke-width="2" /><path d="M +286.9318748652935,96.55758321881315 L 288.08658544421195,95.29661777615568 " fill="rgb(104,111,214)" stroke="rgb(104,111,214)" stroke-width="2" /><path d="M +288.08658544421195,95.29661777615568 L 288.5453659236431,93.24501064419768 " fill="rgb(90,154,100)" stroke="rgb(90,154,100)" stroke-width="2" /><path d="M +288.5453659236431,93.24501064419768 L 289.49187633395195,90.64994934201262 " fill="rgb(55,180,56)" stroke="rgb(55,180,56)" stroke-width="2" /><path d="M +289.49187633395195,90.64994934201262 L 291.2443404376507,87.39691436886808 " fill="rgb(216,93,173)" stroke="rgb(216,93,173)" stroke-width="2" /><path d="M +291.2443404376507,87.39691436886808 L 293.63529140353205,85.09450004696866 " fill="rgb(231,200,58)" stroke="rgb(231,200,58)" stroke-width="2" /><path d="M +293.63529140353205,85.09450004696866 L 294.82364255785944,82.49923103451749 " fill="rgb(15,182,189)" stroke="rgb(15,182,189)" stroke-width="2" /><path d="M +294.82364255785944,82.49923103451749 L 296.3330905139446,78.94956558346769 " fill="rgb(98,48,141)" stroke="rgb(98,48,141)" stroke-width="2" /><path d="M +296.3330905139446,78.94956558346769 L 296.95642773509024,78.29090450406095 " fill="rgb(105,116,0)" stroke="rgb(105,116,0)" stroke-width="2" /><path d="M +296.95642773509024,78.29090450406095 L 299.2189346015453,76.5326870739462 " fill="rgb(57,194,62)" stroke="rgb(57,194,62)" stroke-width="2" /><path d="M +299.2189346015453,76.5326870739462 L 301.136289948225,75.37089861035368 " fill="rgb(46,161,210)" stroke="rgb(46,161,210)" stroke-width="2" /><path d="M +301.136289948225,75.37089861035368 L 302.45863100886345,73.26018159985563 " fill="rgb(207,208,188)" stroke="rgb(207,208,188)" stroke-width="2" /><path d="M +302.45863100886345,73.26018159985563 L 303.6545291602612,71.78245323300382 " fill="rgb(66,167,36)" stroke="rgb(66,167,36)" stroke-width="2" /><path d="M +303.6545291602612,71.78245323300382 L 304.69137265086175,69.96982963681242 " fill="rgb(84,29,217)" stroke="rgb(84,29,217)" stroke-width="2" /><path d="M +304.69137265086175,69.96982963681242 L 305.34719731211663,66.54245880246184 " fill="rgb(196,131,132)" stroke="rgb(196,131,132)" stroke-width="2" /><path d="M +305.34719731211663,66.54245880246184 L 311.9575168311596,51.361291199922775 " fill="rgb(197,131,96)" stroke="rgb(197,131,96)" stroke-width="2" /><path d="M +311.9575168311596,51.361291199922775 L 312.1183883488178,51.31836493015311 " fill="rgb(169,180,47)" stroke="rgb(169,180,47)" stroke-width="2" /><path d="M +312.1183883488178,51.31836493015311 L 312.65751426815984,51.823886752128814 " fill="rgb(5,113,51)" stroke="rgb(5,113,51)" stroke-width="2" /><path d="M +312.65751426815984,51.823886752128814 L 313.73980415463444,53.492965388298245 " fill="rgb(231,214,39)" stroke="rgb(231,214,39)" stroke-width="2" /><path d="M +313.73980415463444,53.492965388298245 L 314.66320217251774,54.90855777263663 " fill="rgb(123,223,117)" stroke="rgb(123,223,117)" stroke-width="2" /><path d="M +314.66320217251774,54.90855777263663 L 315.78926551938054,56.88065879344961 " fill="rgb(20,25,132)" stroke="rgb(20,25,132)" stroke-width="2" /><path d="M +315.78926551938054,56.88065879344961 L 316.57968958020206,58.93894336223623 " fill="rgb(228,135,236)" stroke="rgb(228,135,236)" stroke-width="2" /><path d="M +316.57968958020206,58.93894336223623 L 316.8202363312244,60.75989711284658 " fill="rgb(128,148,194)" stroke="rgb(128,148,194)" stroke-width="2" /><path d="M +316.8202363312244,60.75989711284658 L 317.37401879429814,63.233081316948144 " fill="rgb(43,129,212)" stroke="rgb(43,129,212)" stroke-width="2" /><path d="M 387.3181227982044,70.9120844602587 " fill="rgb(34,104,233)" stroke="rgb(34,104,233)" stroke-width="2" /><path d="M +387.3181227982044,70.9120844602587 L 387.33331922292706,72.38329722881339 " fill="rgb(6,225,213)" stroke="rgb(6,225,213)" stroke-width="2" /><path d="M +387.33331922292706,72.38329722881339 L 387.5691134810447,74.32770984172843 " fill="rgb(81,161,113)" stroke="rgb(81,161,113)" stroke-width="2" /><path d="M +387.5691134810447,74.32770984172843 L 384.82652906179425,79.8493429899218 " fill="rgb(44,217,39)" stroke="rgb(44,217,39)" stroke-width="2" /><path d="M +384.82652906179425,79.8493429899218 L 382.61018003225325,85.51148898601555 " fill="rgb(30,59,4)" stroke="rgb(30,59,4)" stroke-width="2" /><path d="M +382.61018003225325,85.51148898601555 L 379.5537032485008,93.16183230876946 " fill="rgb(2,105,149)" stroke="rgb(2,105,149)" stroke-width="2" /><path d="M +379.5537032485008,93.16183230876946 L 374.05111840963366,102.86187808513665 " fill="rgb(79,175,197)" stroke="rgb(79,175,197)" stroke-width="2" /><path d="M +374.05111840963366,102.86187808513665 L 373.6253540873528,107.29071795940423 " fill="rgb(128,64,77)" stroke="rgb(128,64,77)" stroke-width="2" /><path d="M +373.6253540873528,107.29071795940423 L 374.45021446943286,111.36727588176751 " fill="rgb(30,77,95)" stroke="rgb(30,77,95)" stroke-width="2" /><path d="M +374.45021446943286,111.36727588176751 L 374.52964069843296,115.37265384197259 " fill="rgb(133,167,194)" stroke="rgb(133,167,194)" stroke-width="2" /><path d="M +374.52964069843296,115.37265384197259 L 374.17638092041017,116.54640147686028 " fill="rgb(62,225,6)" stroke="rgb(62,225,6)" stroke-width="2" /><path d="M +374.17638092041017,116.54640147686028 L 374.42836799621585,117.8172011137011 " fill="rgb(21,48,182)" stroke="rgb(21,48,182)" stroke-width="2" /><path d="M +374.42836799621585,117.8172011137011 L 374.8299942016602,118.73994319438958 " fill="rgb(90,79,206)" stroke="rgb(90,79,206)" stroke-width="2" /><path d="M +374.8299942016602,118.73994319438958 L 374.1606339454651,118.84091976881051 " fill="rgb(154,22,5)" stroke="rgb(154,22,5)" stroke-width="2" /><path d="M +374.1606339454651,118.84091976881051 L 374.0874967515469,118.28182319402718 " fill="rgb(227,196,31)" stroke="rgb(227,196,31)" stroke-width="2" /><path d="M +374.0874967515469,118.28182319402718 L 374.49181975722314,117.66684068441414 " fill="rgb(143,7,211)" stroke="rgb(143,7,211)" stroke-width="2" /><path d="M +374.49181975722314,117.66684068441414 L 376.14711531996727,115.98686307668709 " fill="rgb(210,64,138)" stroke="rgb(210,64,138)" stroke-width="2" /><path d="M +376.14711531996727,115.98686307668709 L 378.0954307496548,113.80393289327644 " fill="rgb(148,125,62)" stroke="rgb(148,125,62)" stroke-width="2" /><path d="M +378.0954307496548,113.80393289327644 L 379.95198783278465,112.64162591695808 " fill="rgb(107,197,204)" stroke="rgb(107,197,204)" stroke-width="2" /><path d="M +379.95198783278465,112.64162591695808 L 381.5278267800808,111.99552153348945 " fill="rgb(56,220,23)" stroke="rgb(56,220,23)" stroke-width="2" /><path d="M +381.5278267800808,111.99552153348945 L 383.21592740416526,110.95457361936592 " fill="rgb(103,146,142)" stroke="rgb(103,146,142)" stroke-width="2" /><path d="M +383.21592740416526,110.95457361936592 L 384.7821576058864,109.57222632169746 " fill="rgb(65,152,87)" stroke="rgb(65,152,87)" stroke-width="2" /><path d="M 398.7863293588161,126.75928229093574 " fill="rgb(70,212,52)" stroke="rgb(70,212,52)" stroke-width="2" /><path d="M +398.7863293588161,126.75928229093574 L 402.42919244170184,128.8758825182917 " fill="rgb(30,120,194)" stroke="rgb(30,120,194)" stroke-width="2" /><path d="M +402.42919244170184,128.8758825182917 L 405.06586007475846,129.01437224149726 " fill="rgb(169,48,223)" stroke="rgb(169,48,223)" stroke-width="2" /><path d="M +405.06586007475846,129.01437224149726 L 407.8024918496608,128.4007818102839 " fill="rgb(33,181,218)" stroke="rgb(33,181,218)" stroke-width="2" /><path d="M +407.8024918496608,128.4007818102839 L 409.66891946196546,126.57010496854805 " fill="rgb(143,3,13)" stroke="rgb(143,3,13)" stroke-width="2" /><path d="M +409.66891946196546,126.57010496854805 L 410.69725989699356,123.51208151578926 " fill="rgb(0,190,51)" stroke="rgb(0,190,51)" stroke-width="2" /><path d="M 415.541152948141,121.81970709562324 " fill="rgb(221,191,100)" stroke="rgb(221,191,100)" stroke-width="2" /><path d="M +415.541152948141,121.81970709562324 L 419.3701621949672,119.70662878751777 " fill="rgb(45,83,53)" stroke="rgb(45,83,53)" stroke-width="2" /><path d="M +419.3701621949672,119.70662878751777 L 421.75440806746474,116.6811466097834 " fill="rgb(105,239,218)" stroke="rgb(105,239,218)" stroke-width="2" /><path d="M +421.75440806746474,116.6811466097834 L 423.75050792098034,114.56547163724922 " fill="rgb(113,189,150)" stroke="rgb(113,189,150)" stroke-width="2" /><path d="M +423.75050792098034,114.56547163724922 L 425.022056955099,112.91211527586006 " fill="rgb(164,34,1)" stroke="rgb(164,34,1)" stroke-width="2" /><path d="M +425.022056955099,112.91211527586006 L 427.1584724366664,112.07315548658394 " fill="rgb(230,75,184)" stroke="rgb(230,75,184)" stroke-width="2" /><path d="M +427.1584724366664,112.07315548658394 L 428.7147113740443,110.75217770338082 " fill="rgb(189,218,125)" stroke="rgb(189,218,125)" stroke-width="2" /><path d="M +428.7147113740443,110.75217770338082 L 430.0457540452479,109.67767742872262 " fill="rgb(215,35,201)" stroke="rgb(215,35,201)" stroke-width="2" /><path d="M +430.0457540452479,109.67767742872262 L 431.3639396607875,108.55021780729318 " fill="rgb(32,84,70)" stroke="rgb(32,84,70)" stroke-width="2" /><path d="M +431.3639396607875,108.55021780729318 L 432.0573658883571,105.96631315946603 " fill="rgb(178,80,117)" stroke="rgb(178,80,117)" stroke-width="2" /><path d="M +432.0573658883571,105.96631315946603 L 432.19830422997467,104.73318556547189 " fill="rgb(149,3,0)" stroke="rgb(149,3,0)" stroke-width="2" /><path d="M +432.19830422997467,104.73318556547189 L 431.967232376337,103.29806927442574 " fill="rgb(53,168,175)" stroke="rgb(53,168,175)" stroke-width="2" /><path d="M +431.967232376337,103.29806927442574 L 431.94113465547554,101.14749325513863 " fill="rgb(77,163,38)" stroke="rgb(77,163,38)" stroke-width="2" /><path d="M +431.94113465547554,101.14749325513863 L 432.2830246329307,100.23439797163033 " fill="rgb(185,12,233)" stroke="rgb(185,12,233)" stroke-width="2" /><path d="M +432.2830246329307,100.23439797163033 L 432.46953390836705,97.36575611829781 " fill="rgb(151,80,238)" stroke="rgb(151,80,238)" stroke-width="2" /><path d="M +432.46953390836705,97.36575611829781 L 433.1763472914695,94.4561224818232 " fill="rgb(127,80,79)" stroke="rgb(127,80,79)" stroke-width="2" /><path d="M +433.1763472914695,94.4561224818232 L 434.39706996679297,93.00989197492623 " fill="rgb(202,93,62)" stroke="rgb(202,93,62)" stroke-width="2" /><path d="M +434.39706996679297,93.00989197492623 L 435.08777879476537,91.32641915082955 " fill="rgb(3,111,187)" stroke="rgb(3,111,187)" stroke-width="2" /><path d="M +435.08777879476537,91.32641915082955 L 436.00314153432834,89.58237313032174 " fill="rgb(229,203,74)" stroke="rgb(229,203,74)" stroke-width="2" /><path d="M +436.00314153432834,89.58237313032174 L 435.51813505887975,89.01271618604684 " fill="rgb(116,76,58)" stroke="rgb(116,76,58)" stroke-width="2" /><path d="M +435.51813505887975,89.01271618604684 L 435.15177294015876,89.40500324964547 " fill="rgb(39,39,92)" stroke="rgb(39,39,92)" stroke-width="2" /><path d="M +435.15177294015876,89.40500324964547 L 435.0783267319202,90.42446717023874 " fill="rgb(85,187,161)" stroke="rgb(85,187,161)" stroke-width="2" /><path d="M +435.0783267319202,90.42446717023874 L 434.9257501780986,91.55610293149972 " fill="rgb(146,107,177)" stroke="rgb(146,107,177)" stroke-width="2" /><path d="M +434.9257501780986,91.55610293149972 L 435.6069872081279,93.01512335538888 " fill="rgb(183,157,226)" stroke="rgb(183,157,226)" stroke-width="2" /><path d="M +435.6069872081279,93.01512335538888 L 435.77266795039174,94.00475033521676 " fill="rgb(119,75,44)" stroke="rgb(119,75,44)" stroke-width="2" /><path d="M +435.77266795039174,94.00475033521676 L 435.4683408915996,94.1728760838511 " fill="rgb(64,183,61)" stroke="rgb(64,183,61)" stroke-width="2" /><path d="M +435.4683408915996,94.1728760838511 L 434.9780429065227,93.92591000795387 " fill="rgb(47,52,205)" stroke="rgb(47,52,205)" stroke-width="2" /><path d="M +434.9780429065227,93.92591000795387 L 436.4788311183452,94.83934575319313 " fill="rgb(100,190,156)" stroke="rgb(100,190,156)" stroke-width="2" /><path d="M +436.4788311183452,94.83934575319313 L 438.9588123500347,95.20387390851997 " fill="rgb(181,121,162)" stroke="rgb(181,121,162)" stroke-width="2" /><path d="M +438.9588123500347,95.20387390851997 L 439.4596673667431,95.1096949875357 " fill="rgb(53,38,23)" stroke="rgb(53,38,23)" stroke-width="2" /><path d="M +439.4596673667431,95.1096949875357 L 440.59954935908314,95.27401705384277 " fill="rgb(110,124,107)" stroke="rgb(110,124,107)" stroke-width="2" /><path d="M +440.59954935908314,95.27401705384277 L 441.0523901164531,95.75581098198913 " fill="rgb(79,191,199)" stroke="rgb(79,191,199)" stroke-width="2" /><path d="M 470.18101255297654,91.0239861071112 " fill="rgb(180,51,168)" stroke="rgb(180,51,168)" stroke-width="2" /><path d="M +470.18101255297654,91.0239861071112 L 470.6634065330028,90.99679287672065 " fill="rgb(206,137,190)" stroke="rgb(206,137,190)" stroke-width="2" /><path d="M +470.6634065330028,90.99679287672065 L 471.3188015639781,90.70630291700385 " fill="rgb(141,154,82)" stroke="rgb(141,154,82)" stroke-width="2" /><path d="M +471.3188015639781,90.70630291700385 L 471.2289202034473,89.927885425091 " fill="rgb(93,197,19)" stroke="rgb(93,197,19)" stroke-width="2" /><path d="M +471.2289202034473,89.927885425091 L 471.3240349769592,89.12610195875189 " fill="rgb(230,73,4)" stroke="rgb(230,73,4)" stroke-width="2" /><path d="M +471.3240349769592,89.12610195875189 L 470.85493216514584,89.00666399002097 " fill="rgb(198,88,219)" stroke="rgb(198,88,219)" stroke-width="2" /><path d="M 481.4682370662689,77.94522600173971 " fill="rgb(36,139,138)" stroke="rgb(36,139,138)" stroke-width="2" /><path d="M +481.4682370662689,77.94522600173971 L 481.71047778129576,77.58390693664572 " fill="rgb(57,144,172)" stroke="rgb(57,144,172)" stroke-width="2" /><path d="M +481.71047778129576,77.58390693664572 L 483.2080977916717,77.25354752540609 " fill="rgb(99,27,117)" stroke="rgb(99,27,117)" stroke-width="2" /><path d="M +483.2080977916717,77.25354752540609 L 484.0519446849823,76.57093563079854 " fill="rgb(77,0,117)" stroke="rgb(77,0,117)" stroke-width="2" /><path d="M +484.0519446849823,76.57093563079854 L 484.9264771938324,74.62713375091573 " fill="rgb(176,124,112)" stroke="rgb(176,124,112)" stroke-width="2" /><path d="M +484.9264771938324,74.62713375091573 L 485.0633585214615,71.23206043243428 " fill="rgb(159,151,75)" stroke="rgb(159,151,75)" stroke-width="2" /><path d="M +485.0633585214615,71.23206043243428 L 485.40561590194704,69.50873107910176 " fill="rgb(219,153,237)" stroke="rgb(219,153,237)" stroke-width="2" /><path d="M +485.40561590194704,69.50873107910176 L 485.83959918022157,67.75953826904318 " fill="rgb(205,82,15)" stroke="rgb(205,82,15)" stroke-width="2" /><path d="M +485.83959918022157,67.75953826904318 L 485.0440920352936,65.9258243560793 " fill="rgb(39,222,104)" stroke="rgb(39,222,104)" stroke-width="2" /><path d="M +485.0440920352936,65.9258243560793 L 485.21564666032793,65.35273103714009 " fill="rgb(128,55,24)" stroke="rgb(128,55,24)" stroke-width="2" /><path d="M +485.21564666032793,65.35273103714009 L 485.8814830422402,64.61326298713703 " fill="rgb(78,175,73)" stroke="rgb(78,175,73)" stroke-width="2" /><path d="M +485.8814830422402,64.61326298713703 L 485.80797948837284,63.42407059669514 " fill="rgb(51,17,28)" stroke="rgb(51,17,28)" stroke-width="2" /><path d="M +485.80797948837284,63.42407059669514 L 485.29640130996705,61.757126283645825 " fill="rgb(44,223,175)" stroke="rgb(44,223,175)" stroke-width="2" /><path d="M +485.29640130996705,61.757126283645825 L 484.29923715591434,60.751587247848704 " fill="rgb(94,176,103)" stroke="rgb(94,176,103)" stroke-width="2" /><path d="M +484.29923715591434,60.751587247848704 L 483.00398969650274,58.78774981498738 " fill="rgb(115,106,231)" stroke="rgb(115,106,231)" stroke-width="2" /><path d="M +483.00398969650274,58.78774981498738 L 481.7081812858582,56.51246104240437 " fill="rgb(72,225,122)" stroke="rgb(72,225,122)" stroke-width="2" /><path d="M +481.7081812858582,56.51246104240437 L 480.9257340431214,55.176344823837475 " fill="rgb(149,2,70)" stroke="rgb(149,2,70)" stroke-width="2" /><path d="M +480.9257340431214,55.176344823837475 L 478.8937869071961,52.12806029319783 " fill="rgb(234,71,227)" stroke="rgb(234,71,227)" stroke-width="2" /><path d="M +478.8937869071961,52.12806029319783 L 477.08569688797,49.22632956504841 " fill="rgb(78,96,221)" stroke="rgb(78,96,221)" stroke-width="2" /><path d="M +477.08569688797,49.22632956504841 L 476.15005331039436,47.839486742019844 " fill="rgb(221,98,182)" stroke="rgb(221,98,182)" stroke-width="2" /><path d="M +476.15005331039436,47.839486742019844 L 475.07073564529423,45.995484781265446 " fill="rgb(165,196,210)" stroke="rgb(165,196,210)" stroke-width="2" /><path d="M +475.07073564529423,45.995484781265446 L 474.5078949451447,43.560419321060365 " fill="rgb(61,215,91)" stroke="rgb(61,215,91)" stroke-width="2" /><path d="M +474.5078949451447,43.560419321060365 L 474.907492852211,41.628108072281066 " fill="rgb(33,200,173)" stroke="rgb(33,200,173)" stroke-width="2" /><path d="M +474.907492852211,41.628108072281066 L 475.99042189121246,39.83381543159503 " fill="rgb(232,181,148)" stroke="rgb(232,181,148)" stroke-width="2" /><path d="M +475.99042189121246,39.83381543159503 L 476.95179131031034,39.394704627990905 " fill="rgb(80,141,99)" stroke="rgb(80,141,99)" stroke-width="2" /><path d="M +476.95179131031034,39.394704627990905 L 478.0943614244461,38.13473815917987 " fill="rgb(172,49,27)" stroke="rgb(172,49,27)" stroke-width="2" /><path d="M 490.56247971057894,25.00000000000018 " fill="rgb(78,143,210)" stroke="rgb(78,143,210)" stroke-width="2" /><path d="M +490.56247971057894,25.00000000000018 L 490.98171408176427,26.74476013183612 " fill="rgb(216,224,30)" stroke="rgb(216,224,30)" stroke-width="2" /><path d="M +490.98171408176427,26.74476013183612 L 491.7457006692887,28.95839653015155 " fill="rgb(20,202,221)" stroke="rgb(20,202,221)" stroke-width="2" /><path d="M +491.7457006692887,28.95839653015155 L 492.79559452533726,30.491047668457213 " fill="rgb(208,48,174)" stroke="rgb(208,48,174)" stroke-width="2" /><path d="M +492.79559452533726,30.491047668457213 L 493.1270755529404,31.88748989105243 " fill="rgb(191,173,188)" stroke="rgb(191,173,188)" stroke-width="2" /><path d="M +493.1270755529404,31.88748989105243 L 492.9763796806336,32.40182733535785 " fill="rgb(158,156,211)" stroke="rgb(158,156,211)" stroke-width="2" /><path d="M +492.9763796806336,32.40182733535785 L 492.64230363368995,32.76834559440631 " fill="rgb(156,191,26)" stroke="rgb(156,191,26)" stroke-width="2" /><path d="M +492.64230363368995,32.76834559440631 L 491.99458339214334,32.617121791839786 " fill="rgb(146,238,75)" stroke="rgb(146,238,75)" stroke-width="2" /><path d="M +491.99458339214334,32.617121791839786 L 491.43493292331704,33.46440668106098 " fill="rgb(193,132,190)" stroke="rgb(193,132,190)" stroke-width="2" /><path d="M +491.43493292331704,33.46440668106098 L 490.7864148378373,34.95846166610737 " fill="rgb(9,88,193)" stroke="rgb(9,88,193)" stroke-width="2" /><path d="M +490.7864148378373,34.95846166610737 L 489.58831532001506,37.687663555145456 " fill="rgb(47,142,135)" stroke="rgb(47,142,135)" stroke-width="2" /><path d="M +489.58831532001506,37.687663555145456 L 489.0197781801225,39.21138048172016 " fill="rgb(31,206,84)" stroke="rgb(31,206,84)" stroke-width="2" /><path d="M +489.0197781801225,39.21138048172016 L 488.3155188798906,40.641158676147654 " fill="rgb(20,25,195)" stroke="rgb(20,25,195)" stroke-width="2" /><path d="M +488.3155188798906,40.641158676147654 L 487.55820620059984,43.26033210754414 " fill="rgb(73,178,211)" stroke="rgb(73,178,211)" stroke-width="2" /><path d="M +487.55820620059984,43.26033210754414 L 486.8002111673357,45.98293132782002 " fill="rgb(94,113,29)" stroke="rgb(94,113,29)" stroke-width="2" /><path d="M +486.8002111673357,45.98293132782002 L 486.07717349529287,48.702609062195016 " fill="rgb(83,24,87)" stroke="rgb(83,24,87)" stroke-width="2" /><path d="M +486.07717349529287,48.702609062195016 L 485.84457325935387,49.25958957672138 " fill="rgb(2,11,77)" stroke="rgb(2,11,77)" stroke-width="2" /><path d="M +485.84457325935387,49.25958957672138 L 486.06754021644616,49.629410791397284 " fill="rgb(43,102,79)" stroke="rgb(43,102,79)" stroke-width="2" /><path d="M +486.06754021644616,49.629410791397284 L 486.08327246904395,49.58569046854992 " fill="rgb(42,143,62)" stroke="rgb(42,143,62)" stroke-width="2" /><path d="M +486.08327246904395,49.58569046854992 L 486.3683338761332,49.09715883135815 " fill="rgb(151,75,238)" stroke="rgb(151,75,238)" stroke-width="2" /><path d="M +486.3683338761332,49.09715883135815 L 486.90224424600626,48.122690504789546 " fill="rgb(175,238,228)" stroke="rgb(175,238,228)" stroke-width="2" /><path d="M +486.90224424600626,48.122690504789546 L 487.8757767319682,47.02630054354687 " fill="rgb(203,201,153)" stroke="rgb(203,201,153)" stroke-width="2" /><path d="M +487.8757767319682,47.02630054354687 L 490.2503643631938,46.27072893977184 " fill="rgb(94,101,161)" stroke="rgb(94,101,161)" stroke-width="2" /><path d="M +490.2503643631938,46.27072893977184 L 493.5706898331645,45.66269571185131 " fill="rgb(125,207,232)" stroke="rgb(125,207,232)" stroke-width="2" /><path d="M +493.5706898331645,45.66269571185131 L 493.65977474451097,44.42282411456127 " fill="rgb(231,57,217)" stroke="rgb(231,57,217)" stroke-width="2" /><path d="M +493.65977474451097,44.42282411456127 L 494.04504848718676,43.028160399198725 " fill="rgb(12,149,126)" stroke="rgb(12,149,126)" stroke-width="2" /><path d="M +494.04504848718676,43.028160399198725 L 496.34976860284837,41.29012443423291 " fill="rgb(95,230,58)" stroke="rgb(95,230,58)" stroke-width="2" /><path d="M +496.34976860284837,41.29012443423291 L 497.1383184552196,39.942730063200194 " fill="rgb(110,82,217)" stroke="rgb(110,82,217)" stroke-width="2" /><path d="M +497.1383184552196,39.942730063200194 L 498.6337120175365,38.8895221889021 " fill="rgb(197,14,93)" stroke="rgb(197,14,93)" stroke-width="2" /><path d="M +498.6337120175365,38.8895221889021 L 500.2978729367259,37.51192018389722 " fill="rgb(214,137,220)" stroke="rgb(214,137,220)" stroke-width="2" /><path d="M +500.2978729367259,37.51192018389722 L 501.67031613588364,35.62624265551587 " fill="rgb(68,76,24)" stroke="rgb(68,76,24)" stroke-width="2" /><path d="M +501.67031613588364,35.62624265551587 L 503.7256433606151,34.34955989718457 " fill="rgb(0,101,140)" stroke="rgb(0,101,140)" stroke-width="2" /><path d="M +503.7256433606151,34.34955989718457 L 504.8427070736888,34.30599831938763 " fill="rgb(21,51,216)" stroke="rgb(21,51,216)" stroke-width="2" /><path d="M +504.8427070736888,34.30599831938763 L 506.0015325665477,35.05958222746869 " fill="rgb(208,105,79)" stroke="rgb(208,105,79)" stroke-width="2" /><path d="M +506.0015325665477,35.05958222746869 L 507.12904912233387,35.071147170663075 " fill="rgb(16,116,120)" stroke="rgb(16,116,120)" stroke-width="2" /><path d="M 507.46074577569993,38.05735990107079 " fill="rgb(162,123,31)" stroke="rgb(162,123,31)" stroke-width="2" /><path d="M +507.46074577569993,38.05735990107079 L 508.22109051942857,41.063945022225575 " fill="rgb(60,88,6)" stroke="rgb(60,88,6)" stroke-width="2" /><path d="M +508.22109051942857,41.063945022225575 L 508.754511368275,43.02738324701806 " fill="rgb(222,166,64)" stroke="rgb(222,166,64)" stroke-width="2" /><path d="M +508.754511368275,43.02738324701806 L 508.4825319170955,45.17686177790185 " fill="rgb(65,196,74)" stroke="rgb(65,196,74)" stroke-width="2" /><path d="M +508.4825319170955,45.17686177790185 L 508.22144912481343,47.946652045846186 " fill="rgb(27,148,155)" stroke="rgb(27,148,155)" stroke-width="2" /><path d="M +508.22144912481343,47.946652045846186 L 508.9009788393978,51.34375058710595 " fill="rgb(140,100,177)" stroke="rgb(140,100,177)" stroke-width="2" /><path d="M +508.9009788393978,51.34375058710595 L 512.2854713320736,59.98637754023095 " fill="rgb(71,113,16)" stroke="rgb(71,113,16)" stroke-width="2" /><path d="M +512.2854713320736,59.98637754023095 L 513.6814139246944,66.07398015558739 " fill="rgb(83,177,181)" stroke="rgb(83,177,181)" stroke-width="2" /><path d="M +513.6814139246944,66.07398015558739 L 515.0894658923153,71.88942510187645 " fill="rgb(75,116,174)" stroke="rgb(75,116,174)" stroke-width="2" /><path d="M +515.0894658923153,71.88942510187645 L 515.1187422484163,78.39967443048974 " fill="rgb(18,51,7)" stroke="rgb(18,51,7)" stroke-width="2" /><path d="M +515.1187422484163,78.39967443048974 L 515.5452626436952,81.11667729914208 " fill="rgb(143,165,70)" stroke="rgb(143,165,70)" stroke-width="2" /><path d="M +515.5452626436952,81.11667729914208 L 516.7110528200868,84.032148948312 " fill="rgb(97,178,217)" stroke="rgb(97,178,217)" stroke-width="2" /><path d="M +516.7110528200868,84.032148948312 L 517.9176896303895,87.7081857830288 " fill="rgb(138,47,171)" stroke="rgb(138,47,171)" stroke-width="2" /><path d="M +517.9176896303895,87.7081857830288 L 518.9899636477235,89.82319795191307 " fill="rgb(171,228,210)" stroke="rgb(171,228,210)" stroke-width="2" /><path d="M +518.9899636477235,89.82319795191307 L 520.1340801447633,90.7315385967495 " fill="rgb(101,49,174)" stroke="rgb(101,49,174)" stroke-width="2" /><path d="M 506.2844783991578,76.21035329401512 " fill="rgb(45,117,98)" stroke="rgb(45,117,98)" stroke-width="2" /><path d="M +506.2844783991578,76.21035329401512 L 509.0505836695436,73.61400319635887 " fill="rgb(227,154,22)" stroke="rgb(227,154,22)" stroke-width="2" /><path d="M +509.0505836695436,73.61400319635887 L 511.15874273479017,70.347867408395 " fill="rgb(214,234,140)" stroke="rgb(214,234,140)" stroke-width="2" /><path d="M +511.15874273479017,70.347867408395 L 512.7759868830445,67.67138063013573 " fill="rgb(161,60,239)" stroke="rgb(161,60,239)" stroke-width="2" /><path d="M +512.7759868830445,67.67138063013573 L 513.5863393992189,65.71165677607078 " fill="rgb(121,67,211)" stroke="rgb(121,67,211)" stroke-width="2" /><path d="M +513.5863393992189,65.71165677607078 L 514.9872207850221,62.682747855782694 " fill="rgb(236,142,86)" stroke="rgb(236,142,86)" stroke-width="2" /><path d="M +514.9872207850221,62.682747855782694 L 515.1566062778238,59.31291028559227 " fill="rgb(219,12,180)" stroke="rgb(219,12,180)" stroke-width="2" /><path d="M 519.4548282474283,65.0476980358364 " fill="rgb(114,76,119)" stroke="rgb(114,76,119)" stroke-width="2" /><path d="M +519.4548282474283,65.0476980358364 L 520.4525002330545,65.74666673243064 " fill="rgb(101,237,109)" stroke="rgb(101,237,109)" stroke-width="2" /><path d="M 497.82097252309353,86.9255134731533 " fill="rgb(123,197,18)" stroke="rgb(123,197,18)" stroke-width="2" /><path d="M +497.82097252309353,86.9255134731533 L 494.54824608266387,91.38621446192283 " fill="rgb(100,238,152)" stroke="rgb(100,238,152)" stroke-width="2" /><path d="M +494.54824608266387,91.38621446192283 L 491.45763901174104,97.27175599634666 " fill="rgb(180,160,134)" stroke="rgb(180,160,134)" stroke-width="2" /><path d="M +491.45763901174104,97.27175599634666 L 488.2603825420145,101.78218347132224 " fill="rgb(182,91,74)" stroke="rgb(182,91,74)" stroke-width="2" /><path d="M +488.2603825420145,101.78218347132224 L 487.8956518501047,101.2212238460781 " fill="rgb(196,27,76)" stroke="rgb(196,27,76)" stroke-width="2" /><path d="M +487.8956518501047,101.2212238460781 L 488.11342762410675,100.21503249704857 " fill="rgb(110,45,77)" stroke="rgb(110,45,77)" stroke-width="2" /><path d="M +488.11342762410675,100.21503249704857 L 488.97022942006623,99.15775424540062 " fill="rgb(42,199,80)" stroke="rgb(42,199,80)" stroke-width="2" /><path d="M +488.97022942006623,99.15775424540062 L 488.6325526565317,99.35497423708459 " fill="rgb(107,33,191)" stroke="rgb(107,33,191)" stroke-width="2" /><path d="M +488.6325526565317,99.35497423708459 L 488.3058375447992,100.37562758028527 " fill="rgb(20,25,135)" stroke="rgb(20,25,135)" stroke-width="2" /><path d="M +488.3058375447992,100.37562758028527 L 487.6612354844812,103.11529146730919 " fill="rgb(150,29,109)" stroke="rgb(150,29,109)" stroke-width="2" /><path d="M +487.6612354844812,103.11529146730919 L 487.14670077264344,106.12952410280724 " fill="rgb(212,43,108)" stroke="rgb(212,43,108)" stroke-width="2" /><path d="M +487.14670077264344,106.12952410280724 L 486.5412036031488,108.66900221407433 " fill="rgb(35,86,61)" stroke="rgb(35,86,61)" stroke-width="2" /><path d="M +486.5412036031488,108.66900221407433 L 485.5520002454523,111.56905447542687 " fill="rgb(214,100,11)" stroke="rgb(214,100,11)" stroke-width="2" /><path d="M 502.5987867444757,100.53205877840539 " fill="rgb(184,231,53)" stroke="rgb(184,231,53)" stroke-width="2" /><path d="M +502.5987867444757,100.53205877840539 L 503.05659929215943,100.85371171534081 " fill="rgb(64,91,139)" stroke="rgb(64,91,139)" stroke-width="2" /><path d="M +503.05659929215943,100.85371171534081 L 502.98786266744173,100.46571699678917 " fill="rgb(137,122,94)" stroke="rgb(137,122,94)" stroke-width="2" /><path d="M 513.4955263942484,92.56498381197471 " fill="rgb(164,48,90)" stroke="rgb(164,48,90)" stroke-width="2" /><path d="M +513.4955263942484,92.56498381197471 L 515.0457217067484,92.27721151411552 " fill="rgb(190,161,110)" stroke="rgb(190,161,110)" stroke-width="2" /><path d="M +515.0457217067484,92.27721151411552 L 516.2644607394938,91.4322962194683 " fill="rgb(192,9,191)" stroke="rgb(192,9,191)" stroke-width="2" /></svg>