<?xml version="1.0" encoding="utf-8" ?>
<svg baseProfile="full" height="330.9742287635806" version="1.1" width="545.4525002330546" xmlns="http://www.w3.org/2000/svg" xmlns:ev="http://www.w3.org/2001/xml-events" xmlns:xlink="http://www.w3.org/1999/xlink"><defs /><rect fill="white" height="330.9742287635806" width="545.4525002330546" x="0" y="0" /><path d="M25,299.5685816764834 m6.773934173583984,4.185396575927735 l0.3354454278945923,1.7447128295898438 0.20781536102294923,0.47553768157958987 l0.7984335422515869,-0.6611933231353759 0.8700530052185058,-1.654930877685547 l1.5970161437988282,-2.4724245071411133 1.318418312072754,-1.5782222747802734 l1.9570829391479492,-0.5339149475097656 1.7980836868286132,-0.4599923610687256 l1.6048772811889649,-0.5088991165161133 -2.187942886352539,-3.197755813598633 l-2.180837631225586,-3.9577407836914062 -1.4307523727416993,-2.9551370620727537 l0.15420801639556886,0.26778578758239746 -0.08398581743240356,-0.22302608489990233 l-0.2433995008468628,1.4393372535705566 -0.7440102577209473,2.557777214050293 l-1.0135648727416993,3.294666290283203 -1.0578767776489257,4.495843505859375 l-1.313657283782959,4.6579853057861325 0.6382987976074219,0.3220120906829834 l1.5283088684082031,-0.2521695852279663 1.8926506042480469,-1.5016570091247559 l0.7035255432128906,-1.6065839767456054 0.22468109130859376,-1.646459197998047 l1.110287857055664,-2.04818058013916 1.7685373306274415,-2.436069107055664 l1.6963918685913086,-2.8017295837402343 2.081523895263672,-3.109177017211914 l2.4457237243652346,-2.9864181518554687 2.2264686584472657,-2.3266017913818358 l0.25783774852752683,-0.8361968040466309 0.36659832000732423,-3.038076400756836 l0.11833229064941406,-3.6913341522216796 0.5852355003356934,-2.7262353897094727 l0.32581627368927,-4.634380340576172 0.5167117595672608,-2.571405792236328 l1.2827375411987305,-2.07840576171875 1.7713546752929688,-1.0164705276489259 l1.4511367797851562,-1.8445585250854493 1.080423355102539,-1.5791430473327637 l0.8262729644775391,-3.214347076416016 0.7943902015686035,-2.0940744400024416 l0.8594751358032227,-2.9654016494750977 0.47864155769348143,-1.950345230102539 l-0.31966404914855956,-1.5525797843933105 m6.293370056152344,-21.1794677734375 l1.02323637008667,-1.5840826034545898 1.7542186737060548,-1.4701565742492675 m10.224288940429688,0.32900998592376707 l-0.056879627704620364,-0.7907905578613281 -0.6683860778808594,-1.0497588157653808 l-0.6250398635864258,-2.5135519027709963 0.20354363918304444,-3.7005199432373046 l1.5277894973754882,-1.2398486137390137 1.1604390144348145,-1.669731330871582 l2.283827781677246,0.29001166820526125 2.209798812866211,-1.1569753646850587 l0.7370524406433105,-0.9837287902832031 2.0857046127319334,-0.7087930679321289 l5.217948532104492,-10.555233764648438 0.7560749530792237,-3.8427719116210937 l-0.45435943603515627,-1.2279535293579102 -1.1563597679138184,-0.9700602531433106 l-2.0037677764892576,-0.891364574432373 -2.0309612274169924,-1.0847016334533692 l0.2803805351257324,-1.0829548835754395 0.4480574607849121,-2.1081563949584963 l-4.398227691650391,-6.170555877685547 m-1.1208206176757813,-2.5513925552368164 l-0.8387062072753906,-2.7044307708740236 0.23519496917724608,-3.0003988265991213 l-0.3066940546035767,-2.7335832595825194 -0.313492751121521,-4.13804817199707 l0.6275382995605469,-2.827091598510742 1.028846263885498,-3.540709686279297 l1.4913014411926269,-2.994666862487793 2.972507858276367,-3.7156692504882813 l2.0591171264648436,-3.75853271484375 0.9030697822570801,-2.202440071105957 l0.2029488801956177,-2.045781135559082 0.7232455253601074,-2.810496139526367 l-0.8188912391662597,-2.6555917739868162 0.7967018604278564,-2.5828561782836914 l-0.5967466354370117,-0.06467865705490113 -0.2907713413238525,0.27698636054992676 l0.4844934940338135,1.2788934707641602 1.0180438995361327,2.5806081771850584 l0.3616180896759033,0.9369219779968262 0.7926092147827148,0.7941585063934327 l0.5519051551818848,1.1515130043029784 1.2154409408569335,0.6057820796966553 l1.3725320816040039,0.8382469177246094 1.437350368499756,0.5625911235809327 l1.2655924797058105,-0.11341954469680786 1.1506427764892577,-0.9072669982910156 l1.2634224891662598,-1.632417869567871 0.518273401260376,-0.9779833793640137 l1.3018613815307618,-0.8803516387939453 0.23423352241516113,-1.1486111640930177 l-0.014590878784656525,-1.5815218925476073 -0.1913172960281372,-1.4654853820800782 l0.489621639251709,-1.270462989807129 0.4805453300476074,-1.5681976318359374 l1.0874880790710448,-1.5049274444580079 1.9548324584960937,-2.2629695892333985 l1.120201587677002,-2.353398895263672 -1.7305953979492188,4.465090942382813 l-2.4651487350463865,3.9615100860595702 -1.7219680786132812,3.2728015899658205 l-0.835013484954834,1.7631399154663085 0.1275972843170166,0.7911538124084473 l0.5633115768432617,-0.2151191234588623 1.6378297805786133,-1.438795566558838 l0.920740795135498,-1.2060269355773925 1.7365533828735351,-2.201868438720703 l0.8862838745117188,-1.784263801574707 0.39219691753387453,-1.5081605911254883 l0.29720234870910645,-2.119135284423828 0.6842898368835449,-2.0323972702026367 l1.1610478401184081,-2.9474185943603515 0.8314237594604492,-2.275067901611328 l0.1699497938156128,-0.3783746242523193 -0.27807106971740725,-0.7415290832519531 l0.015197519958019257,-0.9029083251953125 0.49981889724731443,-0.40938611030578614 l0.12689356803894042,-0.994091796875 0.8122754096984863,-0.9706175804138184 l2.2520660400390624,-0.6844386577606201 1.3972249984741212,-2.1638694763183595 l1.8343854904174806,-1.430016040802002 2.23355770111084,-2.8931354522705077 l2.197318267822266,-3.428824615478516 1.5077022552490233,-12.051307678222656 l0.3261888027191162,0.4481193542480469 1.1925317764282226,1.9920223236083985 l1.3416755676269532,1.3882328033447267 0.828865909576416,1.2529319763183593 l1.7758195877075196,0.8616133689880371 1.6974145889282226,-0.0787818431854248 l0.6298479557037353,-0.9074945449829102 m-4.302350616455078,-14.202743530273438 l0.08216606974601745,-0.3470319271087646 0.5807046890258789,0.024862849712371828 l1.7233078002929687,0.667994213104248 0.7797040462493896,-1.049909496307373 l0.7169633388519288,-1.7266389846801757 0.7016578674316406,-0.4831689357757568 l0.09916735291481019,-1.3236358642578125 -0.6298892021179199,0.041391342878341675 l-0.3440347671508789,0.37447869777679443 0.9785385131835938,0.740766954421997 l3.19207649230957,0.9841593742370606 2.8065223693847656,0.25881383419036863 l2.2899553298950197,-0.2512679576873779 1.5302488327026367,-1.4035192489624024 l0.9568408966064453,-1.6393949508666992 1.585115623474121,-2.771622657775879 l1.1049678802490235,-2.5417949676513674 1.7071741104125977,-4.507283020019531 l1.1883407592773438,-3.2615856170654296 -0.536846399307251,1.1287651062011719 l-1.0126283645629883,1.229659080505371 0.906305980682373,1.5149842262268067 l0.48851213455200193,1.8571544647216798 0.6949797630310058,2.433163642883301 m5.026279449462891,6.40672607421875 l0.6125368118286133,2.6668399810791015 0.16679551601409912,2.8122434616088867 l-0.6592510223388672,0.8649038314819336 -1.131729507446289,1.0723917007446289 l-2.7394399642944336,6.72137680053711 -0.8368350982666015,21.670938110351564 l-1.512994384765625,6.770277404785157 1.819739532470703,0.13187775611877442 l1.4358152389526366,-0.8805736541748047 1.181577205657959,-1.4182870864868165 l2.028691864013672,-2.186190605163574 1.7793645858764648,-2.7652509689331053 l2.1142492294311523,-0.5791129112243653 1.5808695793151855,-1.1717568397521974 l1.0710578918457032,-1.3141831398010253 0.9282444953918457,-0.9326478004455566 l1.8100984573364258,-1.3571269989013672 1.580212688446045,-1.691387939453125 l0.9978962898254394,0.23365428447723388 0.8726463317871094,0.2587601900100708 l0.8775159835815429,-0.48015484809875486 1.1811296463012695,-0.46805949211120607 l0.6036999225616455,-1.1611251831054688 1.1416983604431152,-1.0974430084228515 l1.4019770622253418,-2.0750194549560548 0.9835294723510742,-0.4991610527038574 l0.9556493759155273,-1.6624065399169923 0.23822550773620604,-0.4074812889099121 l-0.7263734817504883,-1.0730705261230469 -0.810524845123291,-1.0467794418334961 l-1.5467228889465332,-1.625065231323242 -2.6232105255126954,-0.19017426967620848 l-2.429763412475586,-0.2563362121582031 -4.166667175292969,-0.7639319419860839 l-3.520323944091797,0.12149323225021362 -1.0880342483520509,0.15675963163375856 l-1.289950466156006,-0.07679053544998168 -0.42296133041381834,0.7187316417694092 l-0.08946824073791504,0.932798957824707 0.4359584331512451,1.4379703521728515 l0.6260529041290284,2.523173141479492 1.2296957969665527,4.549704742431641 l0.5583178520202636,3.1724449157714845 0.20483460426330566,3.468661880493164 l0.6491275787353515,3.0305503845214843 0.13490588665008546,3.2666366577148436 l-0.12451739311218261,3.5499168395996095 -1.1690834999084472,2.790203094482422 l-0.5295200347900391,3.1770088195800783 -1.0307775497436524,2.567300796508789 l0.2064983367919922,1.2465591430664062 0.40433311462402344,2.1858211517333985 m0.21660261154174804,3.920625686645508 l0.044594818353652955,1.054544448852539 0.23083608150482177,1.4281102180480958 l0.5880573272705079,2.2751958847045897 1.383684253692627,2.2580455780029296 l0.983305549621582,1.6193119049072267 0.9425749778747559,1.6815336227416993 l0.3368070602416992,2.5016925811767576 -0.19758893251419068,1.6005260467529296 l-0.3692624568939209,2.3058635711669924 0.1360194206237793,2.79931755065918 l0.6629844665527344,2.039194107055664 1.3735142707824708,1.9675209045410156 l-1.3484039306640625,0.5187026977539062 -2.058517646789551,1.3007135391235352 l-0.06770956516265869,2.432115936279297 -0.7415925025939941,3.137090873718262 l-1.6808721542358398,2.6471092224121096 m0.5842342853546143,1.5047246932983398 l0.5841361045837402,1.8057781219482423 0.17207796573638917,2.6959644317626954 l0.48331432342529296,3.033596229553223 -0.6190607070922851,3.4971378326416014 l-0.852908706665039,2.591650390625 -0.057478475570678714,1.4242441177368164 l0.46075987815856934,1.8840644836425782 0.30593528747558596,0.6959882259368897 l0.37932500839233396,-0.21320347785949706 m13.289767456054687,5.970109558105468 l-0.26338183879852295,-0.24063434600830078 0.019445320963859557,1.2115269660949708 m69.99593505859374,-62.6697509765625 l0.16283504962921141,-0.27963783740997317 0.5026062965393067,1.8477527618408203 l0.7927069187164306,1.4638213157653808 1.621555709838867,2.4104339599609377 l1.3540931701660157,2.1578533172607424 1.2468063354492187,1.1224308967590333 l1.9077125549316407,1.0989425659179688 1.4853721618652345,0.8613092422485351 l0.9827877044677734,0.8799163818359375 1.0074339866638184,1.9285881042480468 l0.2763775587081909,2.107880783081055 0.28512253761291506,2.5403182983398436 l-0.09844878315925598,3.803364944458008 -0.3413811922073364,2.1303054809570314 l-0.04885634779930115,2.4948989868164064 0.16444191932678223,3.9959457397460936 l0.39622962474823,3.217311477661133 1.120873260498047,1.2559812545776368 l0.9688860893249511,0.5043213844299317 1.2602405548095703,-0.073444664478302 l3.3028873443603515,-0.9587625503540039 0.8633011817932129,-1.2580047607421876 l-0.07242557406425476,-2.1226102828979494 -2.1196136474609375,-2.875339889526367 l-1.7009414672851562,-3.0042266845703125 -4.558371734619141,-8.356369018554688 l-0.19652099609375,-1.743001365661621 -0.12904117107391358,-3.569466400146484 l-0.34158504009246826,-2.3883262634277345 1.2309656143188477,-1.892024612426758 l1.4603242874145508,-2.0053308486938475 1.2006144523620605,-1.4695038795471191 l2.0271053314208984,-3.123190689086914 2.5834800720214846,-3.3343082427978517 l2.145767402648926,-2.2992155075073244 2.332921600341797,-1.4776998519897462 l2.387527847290039,-2.5853860855102537 1.5216179847717286,-0.6201464653015136 l2.8301267623901367,-1.4824359893798829 0.4913076400756836,-0.3241797924041748 l0.612541389465332,-1.2397275924682618 2.380480194091797,-2.403006744384766 l1.9823495864868164,-3.5040382385253905 0.20317986011505126,-0.5492456436157227 l-0.10526845455169678,-1.3833292961120605 1.020479393005371,-0.4557076930999756 l1.28436336517334,-2.814787673950195 1.7639137268066407,-1.5971296310424805 l0.527547550201416,-2.549656295776367 -0.19872889518737794,-1.847803497314453 l0.09612201452255249,-3.1636112213134764 1.4367288589477538,-3.3250381469726564 l0.3827566862106323,-3.1152359008789063 0.5999724388122558,-3.2521778106689454 l1.4714417457580566,-1.162168598175049 1.1930885314941406,-1.8119012832641601 l1.154710578918457,-1.2609654426574708 0.45878047943115235,-2.051607131958008 l0.9465104103088379,-2.5950613021850586 1.7524641036987305,-3.253034973144531 l2.3909509658813475,-2.302414321899414 1.1883511543273926,-2.5952690124511717 l1.509447956085205,-3.5496654510498047 0.6233372211456298,-0.6586610794067382 l2.262506866455078,-1.7582174301147462 1.9173553466796875,-1.1617884635925293 l1.3223410606384278,-2.110717010498047 1.1958981513977052,-1.4777283668518066 l1.036843490600586,-1.8126235961914063 0.6558246612548828,-3.4273708343505858 l6.610319519042969,-15.181167602539062 0.16087151765823365,-0.04292626976966858 l0.539125919342041,0.505521821975708 1.0822898864746093,1.6690786361694336 l0.9233980178833008,1.4155923843383789 1.126063346862793,1.9721010208129883 l0.7904240608215332,2.058284568786621 0.24054675102233886,1.8209537506103515 l0.5537824630737305,2.4731842041015626 m69.94410400390625,7.679003143310547 l0.01519642472267151,1.4712127685546874 0.2357942581176758,1.944412612915039 l-2.7425844192504885,5.521633148193359 -2.2163490295410155,5.66214599609375 l-3.0564767837524416,7.650343322753907 -5.502584838867188,9.700045776367187 l-0.4257643222808838,4.428839874267578 0.8248603820800782,4.076557922363281 l0.07942622900009155,4.005377960205078 -0.3532597780227661,1.1737476348876954 l0.25198707580566404,1.2707996368408203 0.4016262054443359,0.9227420806884765 l-0.6693602561950683,0.10097657442092896 -0.07313719391822815,-0.5590965747833252 l0.40432300567626955,-0.6149825096130371 1.6552955627441406,-1.6799776077270507 l1.9483154296875,-2.1829301834106447 1.8565570831298828,-1.1623069763183593 l1.5758389472961425,-0.646104383468628 1.6881006240844727,-1.0409479141235352 l1.5662302017211913,-1.382347297668457 m14.004171752929688,17.18705596923828 l3.642863082885742,2.116600227355957 2.6366676330566405,0.1384897232055664 l2.7366317749023437,-0.6135904312133789 1.8664276123046875,-1.8306768417358399 l1.0283404350280763,-3.058023452758789 m4.843893051147461,-1.6923744201660156 l3.829009246826172,-2.113078308105469 2.3842458724975586,-3.025482177734375 l1.996099853515625,-2.1156749725341797 1.2715490341186524,-1.6533563613891602 l2.136415481567383,-0.838959789276123 1.5562389373779297,-1.320977783203125 l1.3310426712036132,-1.074500274658203 1.3181856155395508,-1.1274596214294434 l0.6934262275695801,-2.5839046478271483 0.14093834161758423,-1.2331275939941406 l-0.2310718536376953,-1.4351162910461426 -0.026097720861434935,-2.1505760192871093 l0.34188997745513916,-0.9130952835083008 0.18650927543640136,-2.8686418533325195 l0.706813383102417,-2.9096336364746094 1.2207226753234863,-1.4462305068969727 l0.6907088279724121,-1.6834728240966796 0.9153627395629883,-1.7440460205078125 l-0.4850064754486084,-0.5696569442749023 -0.3663621187210083,0.3922870635986328 l-0.07344620823860168,1.0194639205932616 -0.1525765538215637,1.1316357612609864 l0.6812370300292969,1.4590204238891602 0.16568074226379395,0.9896269798278808 l-0.30432705879211425,0.16812574863433838 -0.4902979850769043,-0.2469660758972168 l1.5007882118225098,0.9134357452392579 2.479981231689453,0.36452815532684324 l0.5008550167083741,-0.0941789209842682 1.1398819923400878,0.16432206630706786 l0.45284075736999513,0.4817939281463623 m29.128622436523436,-4.73182487487793 l0.4823939800262451,-0.027193230390548707 0.6553950309753418,-0.29048995971679686 l-0.08988136053085327,-0.7784174919128418 0.0951147735118866,-0.8017834663391114 l-0.4691028118133545,-0.11943796873092652 m10.613304901123048,-11.06143798828125 l0.24224071502685546,-0.36131906509399414 1.4976200103759765,-0.33035941123962403 l0.8438468933105469,-0.6826118946075439 0.8745325088500977,-1.9438018798828125 l0.13688132762908936,-3.3950733184814452 0.34225738048553467,-1.7233293533325196 l0.43398327827453614,-1.7491928100585938 -0.7955071449279785,-1.833713912963867 l0.17155462503433228,-0.573093318939209 0.6658363819122315,-0.7394680500030517 l-0.07350355386734009,-1.1891923904418946 -0.5115781784057617,-1.6669443130493165 l-0.9971641540527344,-1.0055390357971192 -1.295247459411621,-1.9638374328613282 l-1.2958084106445313,-2.275288772583008 -0.7824472427368164,-1.3361162185668944 l-2.031947135925293,-3.0482845306396484 -1.8080900192260743,-2.9017307281494142 l-0.9356435775756836,-1.3868428230285645 -1.0793176651000977,-1.8440019607543945 l-0.5628407001495361,-2.4350654602050783 0.39959790706634524,-1.9323112487792968 l1.0829290390014648,-1.7942926406860351 0.9613694190979004,-0.43911080360412597 l1.1425701141357423,-1.2599664688110352 m12.468118286132812,-13.134738159179687 l0.4192343711853027,1.7447601318359376 0.7639865875244141,2.2136363983154297 l1.049893856048584,1.532651138305664 0.3314810276031494,1.3964422225952149 l-0.15069587230682374,0.5143374443054199 -0.33407604694366455,0.3665182590484619 l-0.6477202415466309,-0.15122380256652831 -0.559650468826294,0.8472848892211914 l-0.6485180854797363,1.4940549850463867 -1.1980995178222655,2.729201889038086 l-0.5685371398925781,1.523716926574707 -0.7042593002319336,1.4297781944274903 l-0.7573126792907715,2.6191734313964843 -0.7579950332641602,2.722599220275879 l-0.7230376720428466,2.719677734375 -0.23260023593902587,0.5569805145263672 l0.22296695709228515,0.36982121467590334 0.01573225259780884,-0.043720322847366336 l0.2850614070892334,-0.48853163719177245 0.5339103698730469,-0.9744683265686035 l0.9735324859619141,-1.0963899612426757 2.374587631225586,-0.7555716037750244 l3.320325469970703,-0.6080332279205323 0.08908491134643555,-1.2398715972900392 l0.38527374267578124,-1.3946637153625487 2.3047201156616213,-1.7380359649658204 l0.7885498523712158,-1.3473943710327148 1.4953935623168946,-1.0532078742980957 l1.664160919189453,-1.3776020050048827 1.3724431991577148,-1.8856775283813476 l2.055327224731445,-1.2766827583312987 1.1170637130737304,-0.043561577796936035 l1.1588254928588868,0.7535839080810547 1.1275165557861329,0.011564943194389343 m0.3316966533660889,2.986212730407715 l0.7603447437286377,3.006585121154785 0.5334208488464356,1.9634382247924804 l-0.2719794511795044,2.149478530883789 -0.2610827922821045,2.769790267944336 l0.6795297145843506,3.3970985412597656 3.3844924926757813,8.642626953125 l1.3959425926208495,6.087602615356445 1.4080519676208496,5.8154449462890625 l0.029276356101036072,6.510249328613281 0.42652039527893065,2.7170028686523438 l1.1657901763916017,2.915471649169922 1.2066368103027343,3.676036834716797 l1.0722740173339844,2.1150121688842773 1.144116497039795,0.9083406448364257 m-13.849601745605469,-14.521185302734375 l2.7661052703857423,-2.59635009765625 2.108159065246582,-3.2661357879638673 l1.6172441482543944,-2.676486778259277 0.8103525161743164,-1.9597238540649413 l1.4008813858032227,-3.028908920288086 0.16938549280166626,-3.3698375701904295 m4.2982219696044925,5.7347877502441404 l0.9976719856262207,0.6989686965942383 m-22.631527709960938,21.178846740722655 l-3.2727264404296874,4.460700988769531 -3.0906070709228515,5.885541534423828 l-3.1972564697265624,4.510427474975586 -0.36473069190979,-0.5609596252441407 l0.2177757740020752,-1.006191349029541 0.8568017959594727,-1.0572782516479493 l-0.3376767635345459,0.19721999168395996 -0.3267151117324829,1.0206533432006837 l-0.6446020603179932,2.7396638870239256 -0.5145347118377686,3.014232635498047 l-0.605497169494629,2.5394781112670897 -0.9892033576965332,2.9000522613525392 m17.046786499023437,-11.036995697021485 l0.4578125476837158,0.3216529369354248 -0.0687366247177124,-0.38799471855163575 m10.50766372680664,-7.900733184814453 l1.5501953125,-0.2877722978591919 1.2187390327453613,-0.8449152946472168 " fill="none" stroke="black" stroke-width="1" /></svg>